<?xml version="1.0" encoding="utf-8"?>
<!-- Generator: Adobe Illustrator 16.0.0, SVG Export Plug-In . SVG Version: 6.00 Build 0)  -->
<!DOCTYPE svg PUBLIC "-//W3C//DTD SVG 1.0//EN" "http://www.w3.org/TR/2001/REC-SVG-20010904/DTD/svg10.dtd">
<svg version="1.0" id="Layer_1" xmlns="http://www.w3.org/2000/svg" xmlns:xlink="http://www.w3.org/1999/xlink" x="0px" y="0px"
	 width="150px" height="100px" viewBox="0 0 150 100" enable-background="new 0 0 150 100" xml:space="preserve">
<g id="Layer_4" opacity="0.3">
</g>
<g id="Layer_1_1_">
	<g>
		<g>
			<line fill="none" x1="5.337" y1="38.058" x2="17.64" y2="29.942"/>
			<g>
				<path fill="#F8C76C" d="M5.768,38.796c4.101-2.706,8.202-5.411,12.303-8.116c0.915-0.604,0.06-2.084-0.862-1.476
					c-4.101,2.706-8.202,5.412-12.303,8.117C3.991,37.924,4.845,39.405,5.768,38.796L5.768,38.796z"/>
			</g>
		</g>
		<g>
			<line fill="none" x1="7.046" y1="41.134" x2="19.349" y2="33.018"/>
			<g>
				<path fill="#F8C76C" d="M7.477,41.872c4.101-2.705,8.202-5.411,12.303-8.116c0.915-0.604,0.06-2.084-0.863-1.476
					c-4.101,2.706-8.202,5.411-12.303,8.117C5.699,41,6.554,42.48,7.477,41.872L7.477,41.872z"/>
			</g>
		</g>
		<g>
			<line fill="none" x1="8.413" y1="44.209" x2="20.715" y2="36.094"/>
			<g>
				<path fill="#F8C76C" d="M8.844,44.948c4.102-2.706,8.202-5.411,12.303-8.117c0.915-0.604,0.061-2.084-0.862-1.476
					c-4.101,2.706-8.202,5.411-12.303,8.117C7.066,44.076,7.921,45.556,8.844,44.948L8.844,44.948z"/>
			</g>
		</g>
		<g>
			<line fill="none" x1="10.122" y1="47.286" x2="22.424" y2="39.169"/>
			<g>
				<path fill="#F8C76C" d="M10.553,48.023c4.101-2.705,8.202-5.41,12.303-8.116c0.916-0.604,0.061-2.084-0.862-1.475
					c-4.102,2.706-8.203,5.412-12.303,8.117C8.775,47.152,9.63,48.632,10.553,48.023L10.553,48.023z"/>
			</g>
		</g>
		<g>
			<path fill="#FFFFFF" d="M15.982,52.469c2.249-1.408,4.497-2.815,6.745-4.224c1.396-0.874,0.111-3.093-1.294-2.213
				c-2.249,1.408-4.496,2.816-6.744,4.225C13.292,51.131,14.577,53.35,15.982,52.469L15.982,52.469z"/>
		</g>
		<g>
			<path fill="#C2C1C1" d="M17.389,52.979c1.693-1.061,3.385-2.121,5.078-3.18c0.745-0.467,0.06-1.65-0.69-1.182
				c-1.693,1.061-3.386,2.121-5.078,3.182C15.955,52.266,16.64,53.447,17.389,52.979L17.389,52.979z"/>
		</g>
		<g>
			<path fill="#C2C1C1" d="M15.595,49.755c1.692-1.06,3.385-2.121,5.078-3.182c0.559-0.35,0.044-1.236-0.518-0.885
				c-1.692,1.061-3.385,2.121-5.078,3.181C14.518,49.219,15.032,50.107,15.595,49.755L15.595,49.755z"/>
		</g>
		<g>
			<path fill="#FFFFFF" d="M14.033,46.917c0.393,0.378,0.786,0.757,1.179,1.135c0.335,0.322,0.874,0.334,1.208,0
				c0.325-0.324,0.336-0.885,0-1.208c-0.393-0.378-0.786-0.757-1.179-1.135c-0.336-0.323-0.874-0.334-1.208,0
				C13.708,46.033,13.697,46.593,14.033,46.917L14.033,46.917z"/>
		</g>
		<g>
			<path fill="#FFFFFF" d="M17.486,44.125c0.197,0.529,0.395,1.058,0.593,1.587c0.163,0.436,0.572,0.729,1.051,0.597
				c0.418-0.115,0.76-0.614,0.597-1.051c-0.198-0.528-0.395-1.059-0.593-1.587c-0.163-0.436-0.572-0.729-1.051-0.597
				C17.664,43.188,17.322,43.688,17.486,44.125L17.486,44.125z"/>
		</g>
		<g>
			<path fill="#FFFFFF" d="M23.767,52.365c0,0,25.851,0,38.821,0c21.158,0,42.317,0,63.476,0c5.552,0,11.19,0,16.895,0
				c0.582,0,0.582-1.279,0-1.279c-13.037,0-26.179,0-39.149,0c-21.158,0-42.317,0-63.476,0c-5.552,0-11.211,0-16.566,0
				C22.836,51.086,22.836,52.365,23.767,52.365C23.767,52.365,22.836,52.365,23.767,52.365z"/>
		</g>
		<g>
			<path fill="#FFFFFF" d="M143.308,51.436c0,0,0-1.63,0-2.562c0-0.582-1.28-0.582-1.28,0c0,0.932,0,1.746,0,2.562
				C142.027,52.365,143.308,52.365,143.308,51.436C143.308,51.436,143.308,52.365,143.308,51.436z"/>
		</g>
		<g>
			<path fill="#FFFFFF" d="M19.058,54.861c1.451-0.908,2.901-1.816,4.353-2.727c1.396-0.875,0.111-3.093-1.294-2.211
				c-1.451,0.908-2.901,1.817-4.352,2.725C16.368,53.523,17.653,55.742,19.058,54.861L19.058,54.861z"/>
		</g>
		<path fill="#FFFFFF" d="M37.8,49.007c-2.206,0-4.053-0.47-5.543-1.41c-0.463-0.296-0.694-0.681-0.694-1.149
			c0-0.391,0.15-0.739,0.45-1.047c0.3-0.308,0.653-0.462,1.058-0.462c0.296,0,0.586,0.087,0.868,0.261
			c0.983,0.63,2.271,0.944,3.862,0.944c0.853,0,1.684-0.424,2.495-1.27c0.759-0.795,1.25-1.677,1.475-2.646
			c-1.301-0.044-2.299-0.065-2.994-0.065c-0.73,0-1.272,0.062-1.626,0.185c-0.188,0.065-0.376,0.098-0.564,0.098
			c-0.419,0-0.77-0.159-1.052-0.477c-0.268-0.29-0.401-0.63-0.401-1.02c0-0.645,0.338-1.082,1.014-1.313
			c0.676-0.231,1.553-0.347,2.63-0.347c0.268,0,1.204,0.021,2.81,0.065c-0.312-1.165-0.832-2.086-1.562-2.766
			c-0.81-0.745-1.804-1.118-2.983-1.118c-1.164,0-2.039,0.213-2.625,0.64c-0.296,0.217-0.608,0.326-0.933,0.326
			c-0.412,0-0.77-0.152-1.074-0.456c-0.304-0.304-0.456-0.651-0.456-1.042c0-0.434,0.203-0.799,0.607-1.095
			c1.135-0.832,2.628-1.248,4.479-1.248c2.466,0,4.429,0.937,5.89,2.809c1.301,1.678,1.952,3.702,1.952,6.075
			c0,1.771-0.687,3.445-2.061,5.021C41.361,48.171,39.687,49.007,37.8,49.007z"/>
		<path fill="#FFFFFF" d="M57.334,49.289c-0.434,0-0.794-0.134-1.079-0.401c-0.286-0.267-0.429-0.604-0.429-1.009
			c0-0.217-0.018-0.513-0.054-0.89c-0.044-0.426-0.069-0.719-0.077-0.878c-0.021-0.549-0.032-1.258-0.032-2.126
			c0-0.317,0.015-1.519,0.043-3.601c-0.34,0.028-0.676,0.043-1.009,0.043c-1.056,0-2.083-0.019-3.08-0.054l0.021,2.115
			c0,2.19-0.173,3.749-0.521,4.674c-0.521,1.375-1.54,2.062-3.058,2.062c-0.607,0-1.15-0.123-1.627-0.369
			c-0.636-0.325-0.954-0.806-0.954-1.442c0-0.354,0.125-0.662,0.374-0.923c0.25-0.26,0.577-0.39,0.981-0.39
			c0.159,0,0.373,0.051,0.64,0.151c0.267,0.103,0.462,0.152,0.586,0.152c0.491,0,0.737-0.929,0.737-2.788
			c0-0.527-0.038-1.315-0.114-2.364c-0.076-1.048-0.114-1.837-0.114-2.364c0-0.426,0.155-0.767,0.466-1.02s0.684-0.379,1.117-0.379
			c0.188,0,0.441,0.007,0.76,0.021c0.397,0.029,0.65,0.047,0.759,0.054c0.789,0.029,1.797,0.043,3.026,0.043
			c0.268,0,0.665-0.047,1.193-0.141c0.527-0.094,0.929-0.141,1.204-0.141c1.092,0,1.638,0.459,1.638,1.378
			c0,0.585-0.009,1.462-0.027,2.63s-0.027,2.041-0.027,2.619c0,0.824,0.011,1.508,0.033,2.05c0.007,0.174,0.033,0.487,0.076,0.944
			c0.044,0.39,0.065,0.7,0.065,0.932c0,0.405-0.145,0.742-0.434,1.009C58.13,49.155,57.768,49.289,57.334,49.289z"/>
		<path fill="#F8C76C" d="M66.532,49.365c-1.728,0-3.142-0.412-4.241-1.236c-1.215-0.911-1.822-2.194-1.822-3.851
			c0-1.829,0.48-3.377,1.442-4.643c1.07-1.402,2.513-2.104,4.328-2.104c1.258,0,2.303,0.203,3.135,0.607
			c1.092,0.536,1.638,1.367,1.638,2.495c0,0.795-0.445,1.501-1.334,2.115c-0.405,0.282-1.218,0.694-2.44,1.236l-3.655,1.616
			c0.347,0.376,0.766,0.658,1.258,0.847c0.492,0.188,1.056,0.281,1.692,0.281c0.969,0,1.789-0.198,2.462-0.596
			c0.6-0.354,1.081-0.531,1.443-0.531c0.752,0,1.128,0.365,1.128,1.095c0,0.824-0.604,1.497-1.812,2.018
			C68.741,49.148,67.667,49.365,66.532,49.365z M66.239,40.157c-0.673,0-1.247,0.224-1.725,0.672
			c-0.477,0.448-0.86,1.121-1.15,2.018c0.817-0.354,1.63-0.705,2.441-1.053c0.976-0.44,1.753-0.849,2.332-1.226
			C67.653,40.293,67.02,40.157,66.239,40.157z"/>
		<path fill="#FFFFFF" d="M81.783,49.018c-0.709,0-1.194-0.325-1.454-0.977c-0.181-0.463-0.644-1.219-1.388-2.267
			c-0.803-1.136-1.327-1.703-1.574-1.703c-0.058-0.008-0.346-0.011-0.867-0.011l-0.011,1.974c0,0.094,0.003,0.254,0.011,0.478
			c0.007,0.225,0.01,0.397,0.01,0.521c0,1.41-0.523,2.115-1.572,2.115c-0.405,0-0.755-0.111-1.052-0.337
			c-0.318-0.252-0.478-0.582-0.478-0.986c0-0.317,0.014-0.814,0.043-1.491c0.029-0.677,0.043-1.177,0.043-1.503
			c0-0.643-0.025-1.604-0.076-2.885c-0.051-1.279-0.076-2.238-0.076-2.874c0-1.143,0.517-1.714,1.551-1.714
			c0.412,0,0.763,0.119,1.052,0.358c0.311,0.26,0.466,0.586,0.466,0.976c0,0.528,0.019,1.389,0.055,2.581
			c0.774,0.008,1.309-0.151,1.604-0.478c0.052-0.05,0.301-0.505,0.749-1.366c0.636-1.236,1.457-1.854,2.462-1.854
			c0.332,0,0.693,0.102,1.085,0.304c0.47,0.238,0.705,0.527,0.705,0.867c0,0.333-0.11,0.615-0.331,0.846s-0.5,0.348-0.84,0.348
			c-0.188,0-0.46,0.333-0.814,0.998c-0.188,0.39-0.379,0.78-0.574,1.171c-0.152,0.26-0.312,0.48-0.478,0.662
			c0.759,0.621,1.482,1.435,2.17,2.439c0.744,1.07,1.117,1.902,1.117,2.495c0,0.405-0.175,0.733-0.521,0.986
			C82.505,48.91,82.166,49.018,81.783,49.018z"/>
		<path fill="#F8C76C" d="M97.369,35.861c-0.564,0-1.443-0.04-2.636-0.119c-1.15-0.079-2.028-0.116-2.636-0.108
			c0.028,0.825,0.126,2.292,0.293,4.403c0.151,1.866,0.228,3.341,0.228,4.426c0,0.246,0.024,0.61,0.076,1.096
			c0.05,0.483,0.075,0.849,0.075,1.095c0,0.543-0.116,1.031-0.347,1.465c-0.297,0.557-0.72,0.835-1.27,0.835
			c-0.397,0-0.748-0.126-1.052-0.38c-0.34-0.282-0.511-0.636-0.511-1.063c0-0.101,0.02-0.254,0.055-0.46
			c0.036-0.206,0.055-0.363,0.055-0.472c0-0.333-0.023-0.836-0.07-1.508c-0.047-0.673-0.07-1.179-0.07-1.519
			c0-0.969-0.076-2.281-0.229-3.938c-0.173-1.901-0.274-3.214-0.303-3.937h-0.564c-1.612,0-2.893-0.116-3.84-0.347
			c-0.802-0.195-1.204-0.669-1.204-1.421c0-0.369,0.131-0.702,0.391-0.998c0.304-0.354,0.701-0.513,1.193-0.477
			c0.253,0.014,0.828,0.076,1.724,0.184c0.717,0.08,1.295,0.119,1.736,0.119c0.44,0,1.101-0.007,1.979-0.021
			c0.878-0.015,1.538-0.022,1.979-0.022c0.55,0,1.374,0.038,2.473,0.114c1.1,0.076,1.923,0.114,2.474,0.114
			c0.434,0,0.797,0.141,1.09,0.423c0.293,0.282,0.439,0.629,0.439,1.041c0,0.413-0.146,0.761-0.439,1.047
			S97.803,35.861,97.369,35.861z"/>
		<path fill="#F8C76C" d="M105.341,49.365c-1.729,0-3.142-0.412-4.241-1.236c-1.215-0.911-1.822-2.194-1.822-3.851
			c0-1.829,0.48-3.377,1.443-4.643c1.069-1.402,2.512-2.104,4.327-2.104c1.258,0,2.304,0.203,3.135,0.607
			c1.092,0.536,1.638,1.367,1.638,2.495c0,0.795-0.444,1.501-1.334,2.115c-0.404,0.282-1.219,0.694-2.44,1.236l-3.655,1.616
			c0.347,0.376,0.767,0.658,1.258,0.847c0.492,0.188,1.056,0.281,1.692,0.281c0.969,0,1.79-0.198,2.463-0.596
			c0.6-0.354,1.08-0.531,1.442-0.531c0.751,0,1.128,0.365,1.128,1.095c0,0.824-0.604,1.497-1.812,2.018
			C107.55,49.148,106.476,49.365,105.341,49.365z M105.048,40.157c-0.672,0-1.247,0.224-1.724,0.672
			c-0.478,0.448-0.861,1.121-1.15,2.018c0.817-0.354,1.631-0.705,2.44-1.053c0.976-0.44,1.753-0.849,2.332-1.226
			C106.461,40.293,105.829,40.157,105.048,40.157z"/>
		<path fill="#F8C76C" d="M122.978,40.07c-0.412,0.354-0.944,0.82-1.596,1.399l-1.658,1.54l3.308,4.045
			c0.239,0.297,0.358,0.59,0.358,0.879c0,0.376-0.152,0.705-0.456,0.987c-0.303,0.282-0.65,0.422-1.042,0.422
			c-0.404,0-0.766-0.173-1.083-0.521c-0.651-0.708-1.726-1.984-3.222-3.828c-0.586,0.586-1.494,1.439-2.724,2.56
			c-0.39,0.325-0.687,0.597-0.889,0.813c-0.318,0.333-0.676,0.499-1.074,0.499c-0.391,0-0.735-0.141-1.036-0.423
			c-0.3-0.282-0.449-0.61-0.449-0.986c0-0.42,0.296-0.9,0.889-1.443c0.478-0.412,0.955-0.82,1.433-1.226
			c0.44-0.441,1.127-1.117,2.061-2.027c-0.404-0.564-0.813-1.129-1.226-1.693c-0.499-0.665-0.969-1.182-1.41-1.551
			c-0.376-0.311-0.564-0.662-0.564-1.052c0-0.375,0.143-0.71,0.429-1.003s0.627-0.439,1.025-0.439c0.513,0,1.222,0.517,2.126,1.551
			l1.735,2.234c0.622-0.521,1.24-1.041,1.855-1.563c0.766-0.665,1.314-1.232,1.647-1.703c0.312-0.441,0.706-0.661,1.183-0.661
			c0.391,0,0.739,0.137,1.047,0.412c0.308,0.275,0.461,0.601,0.461,0.977C124.105,38.739,123.729,39.339,122.978,40.07z"/>
		<path fill="#F8C76C" d="M134.345,49.268c-0.436,0-0.796-0.134-1.085-0.402c-0.289-0.267-0.435-0.604-0.435-1.009
			c0-0.629-0.014-1.757-0.042-3.384c-0.139,0-0.258,0-0.358,0c-1.556,0-3.063,0.155-4.523,0.466
			c-0.008,0.282-0.047,0.792-0.119,1.529c-0.059,0.63-0.087,1.148-0.087,1.558c0,0.408-0.143,0.746-0.429,1.014
			c-0.285,0.268-0.646,0.401-1.079,0.401s-0.794-0.134-1.078-0.401c-0.287-0.268-0.43-0.607-0.43-1.02
			c0-0.246,0.034-0.58,0.104-1.003c0.068-0.424,0.104-0.758,0.104-1.004c0-0.405-0.011-1.014-0.033-1.827
			c-0.021-0.813-0.032-1.423-0.032-1.828c0-0.427,0-1.055,0-1.888c0.007-0.831,0.011-1.46,0.011-1.887
			c0-0.405,0.142-0.741,0.429-1.009c0.285-0.267,0.646-0.401,1.078-0.401c0.436,0,0.797,0.134,1.085,0.401
			c0.289,0.268,0.435,0.604,0.435,1.009c0,0.463,0.007,1.041,0.021,1.735c0.021,0.962,0.032,1.533,0.032,1.714
			c1.526-0.29,3.135-0.416,4.827-0.38v-0.238c0-0.369,0.015-0.896,0.044-1.584c0.028-0.687,0.043-1.207,0.043-1.562
			c0-0.405,0.145-0.741,0.434-1.009c0.289-0.267,0.65-0.401,1.085-0.401c0.434,0,0.793,0.134,1.078,0.401
			c0.286,0.268,0.43,0.604,0.43,1.009c0,0.361-0.016,0.886-0.044,1.573c-0.029,0.687-0.043,1.211-0.043,1.572
			c0,0.737,0.015,1.812,0.043,3.222c0.028,1.409,0.044,2.483,0.044,3.221c0,0.405-0.144,0.742-0.43,1.009
			C135.138,49.134,134.778,49.268,134.345,49.268z"/>
		<path fill="#FFFFFF" d="M143.087,49.539c-1.635,0-3.03-0.452-4.188-1.355c-1.236-0.977-1.854-2.238-1.854-3.786
			c0-1.75,0.571-3.352,1.715-4.805c1.308-1.67,2.974-2.506,4.999-2.506c3.876,0,5.813,1.714,5.813,5.142
			c0,1.75-0.524,3.341-1.572,4.771C146.757,48.693,145.118,49.539,143.087,49.539z M143.759,39.94c-0.962,0-1.801,0.46-2.517,1.383
			c-0.716,0.921-1.074,1.946-1.074,3.074c0,0.681,0.273,1.233,0.82,1.66c0.545,0.427,1.245,0.64,2.099,0.64
			c0.933,0,1.732-0.463,2.396-1.389c0.644-0.89,0.965-1.916,0.965-3.08c0-0.903-0.186-1.511-0.558-1.822
			C145.519,40.095,144.808,39.94,143.759,39.94z"/>
	</g>
	<g id="Layer_2">
		<g id="Layer_3">
		</g>
	</g>
</g>
</svg>
