<?xml version="1.0" encoding="utf-8"?>
<!-- Generator: Adobe Illustrator 16.0.0, SVG Export Plug-In . SVG Version: 6.00 Build 0)  -->
<!DOCTYPE svg PUBLIC "-//W3C//DTD SVG 1.0//EN" "http://www.w3.org/TR/2001/REC-SVG-20010904/DTD/svg10.dtd">
<svg version="1.0" id="Layer_1" xmlns="http://www.w3.org/2000/svg" xmlns:xlink="http://www.w3.org/1999/xlink" x="0px" y="0px"
	 width="1280px" height="800px" viewBox="0 0 1280 800" enable-background="new 0 0 1280 800" xml:space="preserve">
<g>
	<g>
		<line x1="27.663" y1="281.082" x2="133.359" y2="211.353"/>
		<g>
			<path d="M31.367,287.42c35.232-23.243,70.465-46.486,105.698-69.729c7.863-5.188,0.518-17.907-7.408-12.677
				c-35.233,23.243-70.466,46.489-105.699,69.732C16.094,279.932,23.439,292.65,31.367,287.42L31.367,287.42z"/>
		</g>
	</g>
	<g>
		<line x1="42.344" y1="307.507" x2="148.04" y2="237.777"/>
		<g>
			<path d="M46.047,313.845c35.232-23.243,70.464-46.488,105.698-69.73c7.861-5.188,0.518-17.906-7.41-12.675
				c-35.232,23.243-70.465,46.487-105.698,69.729C30.775,306.357,38.12,319.075,46.047,313.845L46.047,313.845z"/>
		</g>
	</g>
	<g>
		<line x1="54.087" y1="333.932" x2="159.784" y2="264.201"/>
		<g>
			<path d="M57.791,340.271c35.233-23.244,70.465-46.488,105.699-69.731c7.863-5.188,0.518-17.905-7.409-12.677
				c-35.232,23.244-70.465,46.488-105.698,69.732C42.519,332.782,49.864,345.5,57.791,340.271L57.791,340.271z"/>
		</g>
	</g>
	<g>
		<line x1="68.768" y1="360.357" x2="174.464" y2="290.625"/>
		<g>
			<path d="M72.47,366.694c35.233-23.243,70.466-46.486,105.699-69.732c7.863-5.187,0.519-17.905-7.408-12.675
				c-35.233,23.244-70.467,46.488-105.699,69.732C57.2,359.207,64.544,371.924,72.47,366.694L72.47,366.694z"/>
		</g>
	</g>
	<g>
		<path d="M119.119,404.891c19.315-12.096,38.631-24.195,57.943-36.292c12.001-7.517,0.959-26.575-11.112-19.012
			c-19.317,12.097-38.63,24.195-57.945,36.292C96.006,393.395,107.048,412.454,119.119,404.891L119.119,404.891z"/>
	</g>
	<g>
		<path d="M131.207,409.264c14.542-9.108,29.083-18.216,43.625-27.325c6.401-4.009,0.512-14.173-5.927-10.141
			c-14.543,9.109-29.084,18.217-43.625,27.325C118.879,403.132,124.768,413.297,131.207,409.264L131.207,409.264z"/>
	</g>
	<g>
		<path d="M115.788,381.572c14.541-9.108,29.082-18.218,43.625-27.324c4.798-3.009,0.382-10.63-4.448-7.606
			c-14.541,9.109-29.082,18.216-43.625,27.325C106.539,376.973,110.957,384.596,115.788,381.572L115.788,381.572z"/>
	</g>
	<g>
		<path d="M102.369,357.184c3.376,3.252,6.752,6.501,10.13,9.75c2.88,2.773,7.51,2.868,10.379,0c2.789-2.786,2.883-7.607,0-10.379
			c-3.376-3.25-6.752-6.5-10.129-9.75c-2.881-2.772-7.51-2.869-10.38,0C99.581,349.593,99.487,354.413,102.369,357.184
			L102.369,357.184z"/>
	</g>
	<g>
		<path d="M132.033,333.199c1.698,4.544,3.396,9.087,5.094,13.633c1.399,3.743,4.912,6.259,9.028,5.126
			c3.599-0.991,6.53-5.278,5.127-9.029c-1.697-4.544-3.396-9.087-5.093-13.632c-1.4-3.744-4.912-6.26-9.03-5.126
			C133.563,325.16,130.632,329.448,132.033,333.199L132.033,333.199z"/>
	</g>
	<g>
		<path d="M186,404c0,0,222.091,0,333.52,0c181.778,0,363.559,0,545.335,0c47.699,0,96.146,0,145.146,0c5,0,5-11,0-11
			c-112,0-224.913,0-336.342,0c-181.778,0-363.559,0-545.336,0C280.625,393,232,393,186,393C178,393,178,404,186,404
			C186,404,178,404,186,404z"/>
	</g>
	<g>
		<path d="M1213,396c0,0,0-14,0-22c0-5-11-5-11,0c0,8,0,15,0,22C1202,404,1213,404,1213,396C1213,396,1213,404,1213,396z"/>
	</g>
	<g>
		<path d="M145.544,425.442c12.464-7.805,24.927-15.611,37.39-23.418c12.002-7.516,0.96-26.576-11.112-19.012
			c-12.464,7.805-24.927,15.611-37.392,23.418C122.43,413.948,133.472,433.006,145.544,425.442L145.544,425.442z"/>
	</g>
	<g>
		<path d="M306.56,375.145c-18.949,0-34.82-4.036-47.617-12.113c-3.977-2.546-5.964-5.839-5.964-9.877
			c0-3.354,1.289-6.352,3.866-8.992c2.578-2.642,5.608-3.961,9.087-3.961c2.545,0,5.031,0.745,7.455,2.237
			c8.447,5.405,19.505,8.107,33.173,8.107c7.33,0,14.474-3.636,21.433-10.904c6.522-6.831,10.746-14.411,12.672-22.736
			c-11.182-0.374-19.755-0.56-25.718-0.56c-6.275,0-10.934,0.529-13.978,1.585c-1.617,0.559-3.232,0.838-4.846,0.838
			c-3.605,0-6.618-1.366-9.041-4.1c-2.299-2.485-3.446-5.406-3.446-8.759c0-5.528,2.903-9.288,8.713-11.276
			c5.808-1.988,13.341-2.982,22.597-2.982c2.298,0,10.343,0.187,24.135,0.56c-2.673-10.002-7.146-17.923-13.42-23.763
			c-6.958-6.398-15.499-9.599-25.625-9.599c-10.002,0-17.518,1.833-22.55,5.498c-2.547,1.864-5.219,2.796-8.015,2.796
			c-3.54,0-6.615-1.305-9.225-3.913c-2.609-2.61-3.914-5.593-3.914-8.948c0-3.727,1.739-6.864,5.219-9.411
			c9.753-7.145,22.582-10.717,38.485-10.717c21.182,0,38.05,8.045,50.6,24.134c11.182,14.414,16.773,31.808,16.773,52.184
			c0,15.221-5.903,29.604-17.705,43.145C337.154,367.969,322.774,375.145,306.56,375.145z"/>
		<path d="M474.386,377.567c-3.727,0-6.819-1.149-9.271-3.447c-2.456-2.297-3.682-5.186-3.682-8.667
			c0-1.863-0.157-4.409-0.465-7.641c-0.374-3.665-0.591-6.18-0.653-7.548c-0.186-4.72-0.28-10.809-0.28-18.264
			c0-2.734,0.124-13.047,0.373-30.938c-2.919,0.25-5.809,0.373-8.665,0.373c-9.071,0-17.893-0.154-26.465-0.466l0.187,18.171
			c0,18.824-1.491,32.211-4.473,40.163c-4.473,11.804-13.232,17.705-26.279,17.705c-5.218,0-9.877-1.057-13.978-3.169
			c-5.467-2.796-8.2-6.925-8.2-12.395c0-3.042,1.072-5.683,3.214-7.919c2.145-2.237,4.955-3.355,8.434-3.355
			c1.366,0,3.198,0.437,5.498,1.306c2.297,0.869,3.975,1.305,5.032,1.305c4.224,0,6.337-7.983,6.337-23.949
			c0-4.534-0.328-11.306-0.978-20.315c-0.655-9.007-0.98-15.778-0.98-20.314c0-3.664,1.335-6.585,4.008-8.758
			c2.67-2.174,5.871-3.262,9.597-3.262c1.614,0,3.79,0.063,6.524,0.186c3.417,0.25,5.591,0.404,6.523,0.466
			c6.771,0.249,15.436,0.374,25.999,0.374c2.297,0,5.713-0.405,10.249-1.214c4.534-0.807,7.983-1.21,10.343-1.21
			c9.381,0,14.071,3.945,14.071,11.835c0,5.032-0.078,12.565-0.231,22.596c-0.157,10.033-0.234,17.537-0.234,22.505
			c0,7.082,0.093,12.952,0.279,17.612c0.063,1.491,0.28,4.193,0.653,8.106c0.374,3.354,0.56,6.027,0.56,8.014
			c0,3.481-1.244,6.369-3.729,8.667C481.219,376.418,478.113,377.567,474.386,377.567z"/>
		<path stroke="#3B3385" stroke-width="0.5" stroke-miterlimit="10" d="M553.407,378.22c-14.847,0-26.993-3.541-36.435-10.622
			c-10.437-7.829-15.655-18.854-15.655-33.081c0-15.717,4.13-29.011,12.394-39.883c9.193-12.052,21.586-18.079,37.181-18.079
			c10.809,0,19.785,1.74,26.931,5.219c9.38,4.598,14.07,11.742,14.07,21.432c0,6.834-3.82,12.891-11.462,18.172
			c-3.478,2.422-10.467,5.963-20.966,10.623l-31.402,13.884c2.981,3.231,6.584,5.654,10.809,7.269
			c4.224,1.616,9.07,2.423,14.537,2.423c8.323,0,15.375-1.708,21.153-5.126c5.155-3.043,9.287-4.565,12.394-4.565
			c6.459,0,9.691,3.139,9.691,9.412c0,7.083-5.19,12.858-15.563,17.333C572.385,376.357,563.16,378.22,553.407,378.22z
			 M550.891,299.106c-5.777,0-10.716,1.926-14.817,5.778c-4.1,3.852-7.393,9.629-9.877,17.332
			c7.019-3.042,14.007-6.056,20.967-9.039c8.386-3.789,15.064-7.298,20.034-10.53C563.035,300.287,557.6,299.106,550.891,299.106z"
			/>
		<path d="M684.426,375.238c-6.09,0-10.251-2.795-12.488-8.386c-1.553-3.976-5.528-10.466-11.928-19.475
			c-6.896-9.753-11.398-14.631-13.511-14.631c-0.497-0.061-2.981-0.093-7.456-0.093l-0.093,16.959c0,0.808,0.029,2.175,0.093,4.1
			c0.062,1.928,0.093,3.419,0.093,4.474c0,12.114-4.504,18.172-13.511,18.172c-3.48,0-6.493-0.964-9.039-2.89
			c-2.735-2.174-4.1-5-4.1-8.48c0-2.732,0.123-7.003,0.372-12.812c0.249-5.809,0.373-10.112,0.373-12.908
			c0-5.528-0.218-13.791-0.651-24.788c-0.437-10.995-0.653-19.226-0.653-24.693c0-9.815,4.44-14.723,13.326-14.723
			c3.541,0,6.552,1.024,9.039,3.075c2.671,2.236,4.007,5.032,4.007,8.386c0,4.536,0.155,11.927,0.467,22.177
			c6.646,0.063,11.243-1.304,13.791-4.099c0.434-0.435,2.578-4.348,6.43-11.741c5.467-10.624,12.517-15.934,21.153-15.934
			c2.856,0,5.962,0.87,9.317,2.609c4.038,2.049,6.059,4.536,6.059,7.454c0,2.859-0.947,5.282-2.842,7.268
			c-1.896,1.989-4.306,2.982-7.222,2.982c-1.617,0-3.946,2.86-6.992,8.574c-1.613,3.354-3.26,6.709-4.938,10.065
			c-1.303,2.237-2.67,4.131-4.1,5.684c6.522,5.342,12.736,12.33,18.64,20.966c6.397,9.194,9.596,16.339,9.596,21.432
			c0,3.48-1.491,6.307-4.474,8.48C690.637,374.307,687.716,375.238,684.426,375.238z"/>
		<path stroke="#3B3385" stroke-width="0.5" stroke-miterlimit="10" d="M818.331,262.206c-4.846,0-12.393-0.343-22.645-1.025
			c-9.877-0.684-17.425-0.995-22.643-0.934c0.248,7.084,1.086,19.694,2.515,37.834c1.305,16.029,1.958,28.7,1.958,38.02
			c0,2.112,0.217,5.249,0.652,9.411c0.434,4.162,0.652,7.299,0.652,9.411c0,4.66-0.996,8.853-2.983,12.58
			c-2.546,4.786-6.183,7.175-10.9,7.175c-3.419,0-6.43-1.086-9.039-3.262c-2.92-2.422-4.38-5.465-4.38-9.131
			c0-0.868,0.154-2.19,0.466-3.959c0.308-1.772,0.466-3.123,0.466-4.054c0-2.858-0.203-7.176-0.605-12.953
			c-0.404-5.777-0.605-10.126-0.605-13.046c0-8.324-0.654-19.599-1.959-33.826c-1.491-16.337-2.361-27.613-2.608-33.826h-4.846
			c-13.854,0-24.852-0.995-32.987-2.983c-6.896-1.677-10.344-5.746-10.344-12.207c0-3.169,1.117-6.026,3.354-8.573
			c2.61-3.043,6.028-4.41,10.251-4.1c2.175,0.123,7.113,0.651,14.816,1.583c6.15,0.684,11.118,1.025,14.91,1.025
			c3.788,0,9.457-0.061,17.006-0.186c7.548-0.123,13.217-0.186,17.006-0.186c4.722,0,11.804,0.326,21.248,0.977
			c9.44,0.655,16.521,0.98,21.245,0.98c3.729,0,6.851,1.21,9.364,3.634c2.519,2.422,3.776,5.405,3.776,8.945
			c0,3.542-1.258,6.539-3.776,8.992C825.182,260.98,822.061,262.206,818.331,262.206z"/>
		<path stroke="#3B3385" stroke-width="0.5" stroke-miterlimit="10" d="M886.821,378.22c-14.849,0-26.991-3.541-36.436-10.622
			c-10.436-7.829-15.654-18.854-15.654-33.081c0-15.717,4.13-29.011,12.394-39.883c9.193-12.052,21.587-18.079,37.183-18.079
			c10.808,0,19.784,1.74,26.929,5.219c9.381,4.598,14.069,11.742,14.069,21.432c0,6.834-3.819,12.891-11.461,18.172
			c-3.477,2.422-10.469,5.963-20.966,10.623l-31.403,13.884c2.983,3.231,6.584,5.654,10.809,7.269
			c4.224,1.616,9.069,2.423,14.537,2.423c8.325,0,15.376-1.708,21.155-5.126c5.154-3.043,9.285-4.565,12.393-4.565
			c6.457,0,9.688,3.139,9.688,9.412c0,7.083-5.188,12.858-15.56,17.333C905.801,376.357,896.574,378.22,886.821,378.22z
			 M884.308,299.106c-5.779,0-10.719,1.926-14.817,5.778c-4.102,3.852-7.394,9.629-9.88,17.332
			c7.021-3.042,14.01-6.056,20.967-9.039c8.387-3.789,15.064-7.298,20.037-10.53C896.451,300.287,891.018,299.106,884.308,299.106z"
			/>
		<path stroke="#3B3385" stroke-width="0.5" stroke-miterlimit="10" d="M1038.341,298.361c-3.542,3.045-8.107,7.052-13.699,12.02
			l-14.257,13.233l28.422,34.758c2.051,2.547,3.077,5.063,3.077,7.547c0,3.232-1.307,6.058-3.917,8.48
			c-2.608,2.424-5.59,3.635-8.945,3.635c-3.479,0-6.586-1.491-9.317-4.473c-5.591-6.087-14.815-17.053-27.677-32.894
			c-5.033,5.032-12.829,12.363-23.389,21.992c-3.355,2.795-5.902,5.125-7.643,6.987c-2.732,2.86-5.808,4.288-9.225,4.288
			c-3.354,0-6.322-1.211-8.9-3.634c-2.577-2.422-3.864-5.248-3.864-8.48c0-3.602,2.545-7.734,7.64-12.394
			c4.101-3.541,8.199-7.05,12.301-10.529c3.789-3.79,9.691-9.599,17.705-17.425c-3.48-4.846-6.989-9.692-10.531-14.538
			c-4.286-5.715-8.323-10.157-12.114-13.326c-3.231-2.67-4.844-5.684-4.844-9.039c0-3.23,1.225-6.104,3.682-8.619
			c2.453-2.517,5.386-3.775,8.804-3.775c4.412,0,10.499,4.443,18.267,13.326l14.907,19.196c5.343-4.473,10.655-8.946,15.936-13.419
			c6.582-5.714,11.306-10.591,14.165-14.629c2.671-3.79,6.055-5.685,10.154-5.685c3.355,0,6.353,1.181,8.994,3.541
			c2.641,2.361,3.96,5.156,3.96,8.387C1048.031,286.931,1044.8,292.088,1038.341,298.361z"/>
		<path stroke="#3B3385" stroke-width="0.5" stroke-miterlimit="10" d="M1135.998,377.381c-3.728,0-6.833-1.149-9.316-3.447
			c-2.486-2.297-3.728-5.186-3.728-8.667c0-5.404-0.128-15.096-0.373-29.073c-1.182,0-2.207,0-3.076,0
			c-13.357,0-26.308,1.337-38.861,4.007c-0.061,2.423-0.403,6.802-1.022,13.14c-0.5,5.405-0.743,9.862-0.743,13.372
			c0,3.509-1.229,6.415-3.684,8.711c-2.455,2.299-5.545,3.449-9.272,3.449c-3.726,0-6.816-1.15-9.271-3.449
			c-2.457-2.297-3.682-5.217-3.682-8.759c0-2.112,0.295-4.985,0.887-8.62c0.59-3.632,0.886-6.506,0.886-8.619
			c0-3.479-0.093-8.713-0.281-15.7c-0.186-6.991-0.279-12.222-0.279-15.702c0-3.665,0-9.069,0-16.214
			c0.063-7.145,0.094-12.549,0.094-16.215c0-3.478,1.226-6.367,3.682-8.665c2.452-2.299,5.542-3.449,9.27-3.449
			c3.729,0,6.835,1.15,9.316,3.449c2.487,2.298,3.729,5.188,3.729,8.665c0,3.977,0.063,8.946,0.189,14.909
			c0.183,8.263,0.279,13.17,0.279,14.724c13.106-2.485,26.932-3.571,41.469-3.262v-2.05c0-3.168,0.123-7.703,0.372-13.605
			c0.245-5.9,0.373-10.373,0.373-13.418c0-3.479,1.241-6.368,3.728-8.667c2.483-2.297,5.589-3.447,9.316-3.447
			c3.729,0,6.818,1.15,9.27,3.447c2.457,2.3,3.681,5.189,3.681,8.667c0,3.107-0.124,7.61-0.371,13.512
			c-0.248,5.903-0.372,10.407-0.372,13.512c0,6.336,0.124,15.562,0.372,27.676c0.247,12.113,0.371,21.338,0.371,27.674
			c0,3.481-1.224,6.37-3.681,8.667C1142.816,376.232,1139.727,377.381,1135.998,377.381z"/>
		<path d="M1211.108,379.71c-14.044,0-26.033-3.883-35.97-11.647c-10.625-8.387-15.937-19.227-15.937-32.521
			c0-15.033,4.907-28.795,14.725-41.283c11.242-14.349,25.561-21.525,42.958-21.525c33.297,0,49.945,14.724,49.945,44.171
			c0,15.033-4.502,28.701-13.51,41C1242.635,372.443,1228.563,379.71,1211.108,379.71z M1216.885,297.242
			c-8.264,0-15.471,3.962-21.62,11.882c-6.149,7.918-9.226,16.727-9.226,26.419c0,5.84,2.344,10.592,7.034,14.257
			c4.692,3.666,10.703,5.498,18.035,5.498c8.014,0,14.878-3.976,20.592-11.928c5.531-7.641,8.294-16.462,8.294-26.464
			c0-7.765-1.599-12.982-4.801-15.655C1231.994,298.578,1225.889,297.242,1216.885,297.242z"/>
	</g>
</g>
</svg>
