<?xml version="1.0" encoding="utf-8"?>
<!-- Generator: Adobe Illustrator 23.0.2, SVG Export Plug-In . SVG Version: 6.00 Build 0)  -->
<svg version="1.1" id="Слой_1" xmlns="http://www.w3.org/2000/svg" xmlns:xlink="http://www.w3.org/1999/xlink" x="0px" y="0px"
	 viewBox="0 0 50 50" style="enable-background:new 0 0 50 50;" xml:space="preserve">
<style type="text/css">
	.st0{fill-rule:evenodd;clip-rule:evenodd;fill:#E7312A;}
</style>
<g id="Attention">
	<path id="Attention-2" class="st0" d="M25,1.7c0.5,0,0.9,0.1,1.3,0.3l1.8,0.9c0.9,0.4,1.9,0.7,2.8,0.7h0.3l2-0.1h0.1
		c0.8,0,1.7,0.4,2.2,1l1.2,1.6c0.7,0.8,1.6,1.5,2.6,1.9l1.9,0.7c0.9,0.3,1.5,1,1.7,1.9l0.5,2c0.3,1,0.8,2,1.6,2.8l1.4,1.4
		c0.7,0.7,1,1.6,0.8,2.5l-0.3,2c-0.2,1.1,0,2.2,0.3,3.2l0.7,1.9c0.3,0.8,0.2,1.8-0.3,2.5l-1.1,1.7c-0.6,0.9-0.9,2-1,3.1l-0.1,2
		c-0.1,0.9-0.5,1.8-1.3,2.3l-1.7,1.1c-0.9,0.6-1.6,1.4-2.1,2.4l-0.9,1.8c-0.4,0.8-1.2,1.4-2.1,1.5l-2,0.3c-1.1,0.2-2.1,0.6-2.9,1.3
		l-1.5,1.3c-0.7,0.6-1.7,0.8-2.6,0.5l-1.9-0.5c-1.1-0.3-2.2-0.3-3.2,0l-1.9,0.5c-0.9,0.3-1.9,0.1-2.6-0.5l-1.5-1.3
		c-0.9-0.7-1.9-1.1-2.9-1.3l-1.9-0.3c-0.9-0.1-1.7-0.7-2.1-1.5l-0.9-1.8c-0.5-1-1.2-1.8-2.1-2.4L5.6,38c-0.8-0.5-1.2-1.4-1.3-2.3
		l-0.1-2c0-1.1-0.4-2.2-1-3.1l-1.1-1.7c-0.5-0.8-0.6-1.7-0.3-2.6l0.7-1.9c0.4-1,0.5-2.1,0.3-3.1l-0.3-2.1c-0.2-0.9,0.1-1.8,0.8-2.4
		l1.4-1.5c0.8-0.7,1.3-1.7,1.6-2.7l0.5-2C7.2,9.7,7.8,9,8.7,8.7L10.6,8c1-0.4,1.9-1.1,2.6-1.9l1.2-1.6c0.5-0.7,1.3-1.1,2.2-1.1h0.2
		l2,0.2h0.3c1-0.1,1.9-0.3,2.8-0.7L23.7,2C24.1,1.8,24.5,1.7,25,1.7 M25,0c-0.7,0-1.4,0.2-2.1,0.5l-1.8,0.9
		c-0.6,0.3-1.4,0.5-2.1,0.5h-0.2l-2-0.1h-0.2c-1.4,0-2.7,0.6-3.5,1.7L11.9,5c-0.5,0.6-1.2,1.1-1.9,1.4L8.1,7.1
		c-1.4,0.5-2.4,1.7-2.8,3.1l-0.5,1.9c-0.2,0.8-0.6,1.5-1.2,2.1l-1.4,1.4c-1,1-1.5,2.5-1.3,3.9l0.3,2c0.1,0.8,0,1.6-0.2,2.4l-0.7,1.9
		c-0.5,1.4-0.4,2.9,0.4,4.1l1.1,1.7c0.4,0.7,0.7,1.4,0.7,2.2l0.1,2c0.1,1.5,0.8,2.8,2.1,3.6l1.7,1.1c0.7,0.4,1.2,1,1.6,1.7L8.9,44
		c0.6,1.3,1.9,2.2,3.3,2.4l2,0.4c0.8,0.1,1.5,0.4,2.2,0.9l1.5,1.3c1.1,0.9,2.6,1.2,4.1,0.8l1.9-0.5c0.8-0.2,1.6-0.2,2.4,0l1.9,0.5
		c1.4,0.4,2.9,0.1,4.1-0.8l1.5-1.3c0.6-0.5,1.4-0.8,2.2-0.9l1.9-0.4c1.4-0.2,2.7-1.1,3.3-2.4l0.9-1.8c0.4-0.7,0.9-1.3,1.6-1.7
		l1.7-1.1c1.2-0.8,2-2.1,2.1-3.6l0.1-2c0-0.8,0.3-1.6,0.7-2.3l1.1-1.7c0.8-1.2,0.9-2.7,0.4-4L49,23.9c-0.3-0.7-0.4-1.5-0.2-2.3
		l0.3-2.1c0.2-1.4-0.3-2.8-1.3-3.8l-1.4-1.5c-0.6-0.5-1-1.2-1.2-2l-0.5-2c-0.4-1.4-1.4-2.5-2.8-3l-1.8-0.8c-0.8-0.3-1.4-0.8-1.9-1.4
		l-1.2-1.5c-0.9-1.1-2.2-1.7-3.5-1.7h-0.2l-2,0.1h-0.2c-0.7,0-1.4-0.2-2.1-0.5l-1.8-0.9C26.4,0.2,25.7,0,25,0L25,0z M23.4,23
		c-0.3-1.5-0.5-2.7-0.7-3.5c-0.1-0.9-0.2-1.6-0.3-2s-0.1-0.8-0.1-1.1c0-0.7,0.2-1.3,0.7-1.8c1.1-0.9,2.7-0.9,3.8,0
		c0.5,0.5,0.8,1.1,0.7,1.8c0,0.3,0,0.7-0.1,1.1s-0.1,1.1-0.3,1.9c-0.2,0.9-0.4,2.1-0.7,3.6c-0.3,1.5-0.7,3.5-1.2,5.9h-0.9
		C24.1,26.5,23.7,24.5,23.4,23L23.4,23z M23.2,31.8c1-1,2.6-1,3.6,0c0,0,0,0,0,0c0.5,0.5,0.7,1.1,0.8,1.8c0,0.7-0.2,1.3-0.8,1.8
		c-1,0.9-2.6,0.9-3.6,0c-0.5-0.5-0.8-1.1-0.8-1.8C22.4,32.9,22.7,32.3,23.2,31.8L23.2,31.8z"/>
</g>
</svg>
