<?xml version="1.0" encoding="utf-8"?>
<!-- Generator: Adobe Illustrator 23.0.2, SVG Export Plug-In . SVG Version: 6.00 Build 0)  -->
<svg version="1.1" id="Слой_1" xmlns="http://www.w3.org/2000/svg" xmlns:xlink="http://www.w3.org/1999/xlink" x="0px" y="0px"
	 viewBox="0 0 70 70" style="enable-background:new 0 0 70 70;" xml:space="preserve">
<style type="text/css">
	.st0{fill:#EFF1FA;}
	.st1{fill-rule:evenodd;clip-rule:evenodd;fill:#626679;}
	.st2{fill:#626679;}
</style>
<g id="bathroom">
	<circle id="Эллипс_714" class="st0" cx="35" cy="35" r="35"/>
	<path id="Фигура_1029" class="st1" d="M58.5,30.1c1.9,0,2.5,2.1,2.5,3.3c0,2.6-1.9,3.5-1.9,3.5v0.4c0,7.6-3.4,13.6-10.6,13.7
		H23.2c-8-0.1-12.2-7.8-12.2-13.7v-0.4c0,0-2-1.5-2-3.3c0-1.6,0.3-2,0.7-2.5c0.4-0.5,1.3-1,1.9-1L58.5,30.1z M57,36.9h-44v0.4
		c0,3.6,2.5,11.8,10.1,11.7h25.3c7.1,0,8.8-6.3,8.6-11.7L57,36.9L57,36.9L57,36.9z"/>
	<rect id="Прямоугольник_1027" x="22" y="50" class="st2" width="2" height="4"/>
	<rect id="Прямоугольник_1028" x="47" y="50" class="st2" width="2" height="4"/>
	<g id="Прямоугольник_1029">
		<path class="st2" d="M55,27v3h-2v-3H55 M57,25h-6v7h6V25L57,25z"/>
	</g>
	<g id="Прямоугольник_1030">
		<rect x="49" y="25" class="st2" width="8" height="2"/>
	</g>
	<path id="Прямоугольник_1026" class="st0" d="M12,31.9h46.2c0.6,0,1.1,0.5,1.1,1.1v0.9c0,0.6-0.5,1.1-1.1,1.1H12
		c-0.6,0-1.1-0.5-1.1-1.1V33C10.9,32.4,11.4,31.9,12,31.9z"/>
</g>
</svg>
