<?xml version="1.0" encoding="utf-8"?>
<!-- Generator: Adobe Illustrator 23.0.2, SVG Export Plug-In . SVG Version: 6.00 Build 0)  -->
<svg version="1.1" id="Слой_1" xmlns="http://www.w3.org/2000/svg" xmlns:xlink="http://www.w3.org/1999/xlink" x="0px" y="0px"
	 viewBox="0 0 70 70" style="enable-background:new 0 0 70 70;" xml:space="preserve">
<style type="text/css">
	.st0{fill:#E7312A;}
	.st1{fill-rule:evenodd;clip-rule:evenodd;fill:#E7312A;}
</style>
<g id="bedroom">
	<g id="Эллипс_714_копия_4">
		<path class="st0" d="M35,2c18.2,0,33,14.8,33,33S53.2,68,35,68S2,53.2,2,35S16.8,2,35,2 M35,0C15.7,0,0,15.7,0,35s15.7,35,35,35
			s35-15.7,35-35S54.3,0,35,0L35,0z"/>
	</g>
	<path id="спальня" class="st1" d="M56.7,35.1c-0.1-1.2-0.2-3.5-0.4-4.6c-0.1-0.8-0.2-1.6-0.3-2.4c-0.3-2.4,0.1-4.9,0.9-7.2
		c0.2-0.6,0-1.2-0.6-1.5c-0.3-0.1-0.6-0.1-0.9,0c-0.5,0.3-1,0.5-1.5,0.6C52,20.5,50,20.7,48,20.7c-4.4,0-8.3-2.9-13.1-2.9
		c-4.5,0-8,2.2-12.3,2.8c-2.2,0.2-4.5,0.1-6.7-0.6c-0.5-0.1-1-0.3-1.5-0.6c-0.5-0.3-1.1-0.1-1.4,0.4l0,0c-0.1,0.3-0.1,0.6,0,0.9
		c0.9,2.3,1.2,4.8,0.9,7.2c-0.1,0.7-0.2,1.5-0.3,2.4c-0.1,1.1-0.3,3.4-0.4,4.6c-0.8,0.2-1.3,1-1.3,1.8v10.1c0,1,0.8,1.8,1.8,1.9l0,0
		H16v3c0,0.6,0.5,1.1,1.1,1.1h3.8c0.6,0,1.1-0.5,1.1-1.1l0,0v-3h26v3c0,0.6,0.5,1.1,1.1,1.1h3.8c0.6,0,1.1-0.5,1.1-1.1l0,0v-3h2.3
		c1,0,1.8-0.9,1.8-1.9v-9.9C58,36.1,57.5,35.4,56.7,35.1L56.7,35.1L56.7,35.1z M20,51.1h-2V49h2V51.1L20,51.1z M51.9,51.1h-1.8V49
		h1.8V51.1L51.9,51.1z M56.1,47H14V37h42.1V47L56.1,47z M31.9,32.1L31.9,32.1v2.7v0.1l0,0c0,0,0,0-0.1,0H20.1H20l0,0l0,0l-0.1-0.1
		v-2.7c0,0,0-0.1,0.1-0.1l0,0h0.1h11.7C31.8,32,31.9,32,31.9,32.1L31.9,32.1L31.9,32.1L31.9,32.1L31.9,32.1z M50,32.1L50,32.1v2.7
		v0.1l0,0c0,0,0,0-0.1,0H38.2h-0.1l0,0l0,0v-0.1v-2.7V32l0,0h0.1h11.7C49.9,32,50,32,50,32.1L50,32.1L50,32.1L50,32.1L50,32.1z
		 M52,35.1L52,35.1v-0.2v-2.7c0-0.5-0.3-1-0.7-1.4l0,0c-0.3-0.4-0.9-0.7-1.4-0.7H38.2c-0.6,0-1.1,0.2-1.5,0.6l-0.1,0.1
		c-0.4,0.3-0.7,0.8-0.7,1.4v2.7v0.2H34v-0.2v-2.7c0-0.5-0.2-1-0.6-1.4l0,0c-0.4-0.5-1-0.7-1.6-0.7H20.1c-0.5,0-1,0.2-1.4,0.6
		l-0.1,0.1c-0.4,0.3-0.7,0.8-0.6,1.4v2.9h-2.9c0.1-1,0.2-3.2,0.3-4.2c0.1-0.8,0.2-1.6,0.3-2.5c0.4-3.5-0.4-5.5-0.3-6.6
		c3.5,0.8,4.4,0.8,7.4,0.7c4.2-0.5,7.7-2.7,12.1-2.7c4.8,0,8.6,2.9,13.1,2.9c2.2,0,4.4-0.2,6.5-0.7c-0.4,2.1-0.6,4.3-0.4,6.5
		c0.1,0.8,0.2,1.6,0.3,2.5c0.1,1,0.3,3.2,0.4,4.2L52,35.1L52,35.1z"/>
</g>
</svg>
