<?xml version="1.0" encoding="utf-8"?>
<!-- Generator: Adobe Illustrator 23.0.2, SVG Export Plug-In . SVG Version: 6.00 Build 0)  -->
<svg version="1.1" id="Слой_1" xmlns="http://www.w3.org/2000/svg" xmlns:xlink="http://www.w3.org/1999/xlink" x="0px" y="0px"
	 viewBox="0 0 60 60" style="enable-background:new 0 0 60 60;" xml:space="preserve">
<style type="text/css">
	.st0{fill-rule:evenodd;clip-rule:evenodd;fill:#E83E38;}
</style>
<g id="bez_podgotovki">
	<path id="bez_podgotovki-2" class="st0" d="M28.1-0.3h2v7h-2V-0.3z M53.2,29.8h6.9v1.9h-6.9V29.8z M49,18l6.4-3.7l1,1.7L50,19.7
		L49,18z M40.1,9.8l3.7-6.4l1.7,1l-3.7,6.4L40.1,9.8z M49,43.1l1-1.7l6.4,3.7l-1,1.7L49,43.1z M24.5,30.6c0,2.6,2,4.7,4.6,4.7
		c0.9,0,1.8-0.3,2.6-0.8l5.4,5.4l1.4-1.4l-5.4-5.4c1.4-2.2,0.7-5.1-1.5-6.5c-0.5-0.3-1-0.6-1.6-0.7V12.8h-2V26
		C26,26.5,24.5,28.4,24.5,30.6L24.5,30.6z M29.2,27.8c1.5,0,2.7,1.2,2.7,2.7c0,1.5-1.2,2.7-2.7,2.7c-1.5,0-2.7-1.2-2.7-2.7
		C26.5,29,27.7,27.8,29.2,27.8C29.2,27.8,29.2,27.8,29.2,27.8L29.2,27.8z M29.2,57.9c-15.1,0-27.4-12.2-27.4-27.3
		c0-10,5.4-19.2,14.2-24L15.1,5l-0.4-1.3l7,0.7l-3,6.2l-1.5-2.7l-0.5,0.3l0,0l-0.1,0.1l-1.1,0.6v0c-12,7.6-15.6,23.4-8,35.4
		c6.4,10.1,18.9,14.5,30.1,10.5l-0.7-1.9c-12.4,4.2-25.8-2.4-30-14.7c-3.5-10.3,0.4-21.7,9.6-27.6l2.4,4.3l5.9-12.2L11.8,1.4
		l1.4,4.5C-0.3,14.7-4.1,32.9,4.8,46.5c8.9,13.6,27.1,17.4,40.7,8.5c0.1-0.1,0.2-0.1,0.2-0.2l-1.1-1.7C40,56.3,34.7,57.9,29.2,57.9
		L29.2,57.9z"/>
</g>
</svg>
