<?xml version="1.0" encoding="utf-8"?>
<!-- Generator: Adobe Illustrator 23.0.2, SVG Export Plug-In . SVG Version: 6.00 Build 0)  -->
<svg version="1.1" id="Слой_1" xmlns="http://www.w3.org/2000/svg" xmlns:xlink="http://www.w3.org/1999/xlink" x="0px" y="0px"
	 viewBox="0 0 23 25" style="enable-background:new 0 0 23 25;" xml:space="preserve">
<style type="text/css">
	.st0{fill-rule:evenodd;clip-rule:evenodd;fill:#E72F2A;}
</style>
<g id="calendar">
	<path id="calendar-2" class="st0" d="M3.4,16h5c0.3,0,0.5-0.1,0.6-0.3v-5.3C9,10.2,8.8,10,8.6,10H3.4C3.2,10,3,10.2,3,10.4v5.3
		C3,15.8,3.2,16,3.4,16z M4,11h4v4H4V11z M23,7.4v-4c-0.1-0.8-0.7-1.4-1.5-1.4H20V1.3c-0.1-0.7-0.6-1.2-1.3-1.3h-1.4
		c-0.7,0.1-1.2,0.6-1.2,1.3V2H7V1.3C6.9,0.6,6.4,0.1,5.7,0H4.3C3.6,0.1,3.1,0.6,3.1,1.3V2H1.5C0.7,2.1,0.1,2.7,0,3.4v20.1
		c0.1,0.8,0.7,1.4,1.5,1.4h20.1c0.8-0.1,1.4-0.7,1.5-1.4L23,7.4L23,7.4z M17,1.3C17,1.1,17.1,1,17.3,1h1.4C18.9,1,19,1.1,19,1.3v2.5
		C19,3.9,18.9,4,18.7,4h-1.4C17.1,4,17,3.9,17,3.7c0,0,0,0,0,0V1.3L17,1.3z M4,1.3C4,1.1,4.1,1,4.3,1h1.4C5.9,1,6,1.1,6,1.3v2.5
		C6,3.9,5.9,4,5.7,4c0,0,0,0,0,0H4.3C4.1,4,4,3.9,4,3.7c0,0,0,0,0,0V1.3L4,1.3z M1,3.4C1,3.2,1.2,3,1.5,3H3v0.8
		c0,0.7,0.5,1.2,1.2,1.3h1.4C6.4,4.9,6.9,4.4,7,3.7V3h9.1v0.8c0,0.7,0.5,1.2,1.2,1.3h1.4c0.7-0.1,1.2-0.6,1.3-1.3V3h1.5
		C21.8,3,22,3.2,22,3.4V7H1L1,3.4L1,3.4L1,3.4z M22,23.6c0,0.3-0.2,0.5-0.5,0.5c0,0,0,0,0,0H1.5C1.2,24,1,23.8,1,23.6c0,0,0,0,0,0V8
		h21L22,23.6L22,23.6L22,23.6z"/>
</g>
</svg>
