<?xml version="1.0" encoding="utf-8"?>
<!-- Generator: Adobe Illustrator 23.0.2, SVG Export Plug-In . SVG Version: 6.00 Build 0)  -->
<svg version="1.1" id="Слой_1" xmlns="http://www.w3.org/2000/svg" xmlns:xlink="http://www.w3.org/1999/xlink" x="0px" y="0px"
	 viewBox="0 0 70 70" style="enable-background:new 0 0 70 70;" xml:space="preserve">
<style type="text/css">
	.st0{fill:#EFF1FA;}
	.st1{fill-rule:evenodd;clip-rule:evenodd;fill:#626679;}
</style>
<g id="children">
	<g id="Эллипс_714_копия_3">
		<path class="st0" d="M35,0C15.7,0,0,15.7,0,35s15.7,35,35,35s35-15.7,35-35S54.3,0,35,0L35,0z"/>
	</g>
	<path id="детская" class="st1" d="M33.5,31.5v4.2h7.6v-4.2H33.5z M55.1,43.3L55.1,43.3c0.7-0.6,1.7-0.6,2.4,0s0.7,0.5,0,1.1
		c-12.1,10.6-32,10.5-44,0c-0.7-0.6-0.7-0.6,0-1.1c0.7-0.6,1.7-0.6,2.4,0c1.3,1.1,2.6,2.1,4.1,2.9l0.3-0.6c1.8-3.3,3.5-9.5,2.8-13.4
		c-0.5-2.6-0.7,0.1-2.3,0.7c-0.7,0.3-1.5,0.2-2.3-0.1l0,0c-0.2-0.1-0.4-0.2-0.7-0.3l0,0c-0.6-0.3-1-0.7-1.3-1.3
		c-0.2-0.5-0.3-1.1-0.1-1.7l0.1-0.1c0.1-0.2,0.1-0.3,0.2-0.5c0.3-0.5,0.4-1.1,0.3-1.7l0,0c0-0.2,0-0.4-0.1-0.7
		c0-0.6,0.2-1.3,0.5-1.8l-1.6-1c-0.1,0-0.1-0.1-0.2-0.1c-0.3-0.3-0.4-0.8,0-1.2l0.1-0.1c1.6-1.4,3.5-2.3,5.6-2.7
		c1.4-0.2,2.9-0.1,4.3,0.4c1.2,0.5,2.4,1.2,3.3,2.2c2,2,3.5,4.5,4.3,7.3h8.3c2.9-3.4,9.2-3.4,11.6,0.4c0.3,0.4,0.2,0.9-0.1,1.1
		l-1.9,1.7c-0.3,0.2-0.6,0.3-1,0.2c-3-0.6-2.6,1.4-2,3.2c0.8,2.4,2.5,8.2,3.7,9.3C53,44.9,54.1,44.1,55.1,43.3L55.1,43.3L55.1,43.3z
		 M21.8,47.2L21.8,47.2c0.3,0.2,0.6,0.3,0.9,0.5c0.3,0.1,0.6,0.3,0.9,0.4c7.2-9.8,16.4-8.4,24.1-0.1c0.4-0.2,0.9-0.4,1.3-0.6
		c0.4-0.2,0.9-0.4,1.3-0.7c-1.5-1.5-3.2-7.4-4.1-9.7c-1-2.8-0.7-6.3,3.9-5.6l0.9-0.8c-1.9-2.2-6.1-1.8-7.8,0.4v4.8
		c0,0.5-0.2,0.9-0.6,1.3c-0.4,0.4-0.9,0.6-1.5,0.5h-7.6c-0.5,0-1.1-0.2-1.4-0.5c-0.4-0.3-0.6-0.8-0.6-1.3c0-2.4,0.3-4.7-0.6-7
		c-0.8-1.9-1.9-3.6-3.4-5.1c-0.7-0.7-1.6-1.3-2.6-1.7c-1-0.4-2-0.5-3.1-0.3c-1.3,0.3-2.5,0.8-3.6,1.5l1.5,0.9
		c0.4,0.2,0.6,0.7,0.4,1.1c0,0,0,0.1-0.1,0.1c0,0.1-0.1,0.1-0.1,0.1l-0.1,0.1c-0.4,0.3-0.6,0.7-0.6,1.1c0,0.2,0,0.4,0,0.6
		c0.1,0.9-0.1,1.9-0.6,2.7l0,0c0,0.1-0.1,0.1-0.1,0.2l0,0c0,0.1,0,0.3,0,0.4c0.2,0.3,0.5,0.5,0.8,0.5c0.2,0.1,0.5,0.1,0.7,0.2
		c0.3-0.2,0.5-0.5,0.7-0.8c0.3-0.5,0.8-0.9,1.3-1.3h0.1c0.8-0.5,1.9-0.2,2.4,0.7c0.4,0.7,0.7,1.4,0.8,2.2c0.3,2.5,0.2,5.1-0.5,7.5
		c-0.5,2.4-1.4,4.7-2.5,6.9L22,46.8L21.8,47.2L21.8,47.2L21.8,47.2z M25.6,48.8L25.6,48.8c6.5,2.2,13.6,2.1,20.1-0.1
		C38.5,41.8,32.3,40.4,25.6,48.8L25.6,48.8z"/>
</g>
</svg>
