<?xml version="1.0" encoding="utf-8"?>
<!-- Generator: Adobe Illustrator 23.0.2, SVG Export Plug-In . SVG Version: 6.00 Build 0)  -->
<svg version="1.1" id="Слой_1" xmlns="http://www.w3.org/2000/svg" xmlns:xlink="http://www.w3.org/1999/xlink" x="0px" y="0px"
	 viewBox="0 0 60 60" style="enable-background:new 0 0 60 60;" xml:space="preserve">
<style type="text/css">
	.st0{fill-rule:evenodd;clip-rule:evenodd;fill:#E7312A;}
</style>
<g id="cyho">
	<path id="cyho-2" class="st0" d="M30,0c16.6,0,30,13.4,30,30S46.6,60,30,60S0,46.6,0,30S13.4,0,30,0L30,0z M30.1,1.9
		c15.5,0,28.1,12.6,28.1,28.1c0,15.5-12.6,28.1-28.1,28.1C14.6,58.1,2,45.5,2,30c0,0,0,0,0,0C2,14.5,14.6,1.9,30.1,1.9z M29,34.1
		V23.3l0,0v-9.6c0-0.3-0.3-0.6-0.6-0.6c0,0,0,0,0,0h-6.7c-0.4,0-0.6,0.3-0.6,0.6c0,0,0,0,0,0v9.6l0,0v11c-2.4,1.5-4,4.1-4,7
		c0,4.4,3.6,7.9,8,7.8c0,0,0,0,0.1,0c4.3,0.1,7.9-3.4,7.9-7.7c0,0,0-0.1,0-0.1C33,38.3,31.5,35.6,29,34.1z M25,47
		c-3.7,0-6.1-2.1-6.1-5.8c0.1-2.5,1.5-4.8,3.7-6.1c0.2-0.1,0.3-0.3,0.3-0.6V23.9h4.1v10.6c0,0.2,0.1,0.5,0.4,0.6
		c2.2,1.2,3.6,3.6,3.6,6.1C31.1,44.9,28.7,47,25,47z M22.9,14.9h4.1v7.2h-4.1V14.9z M13,15h6v2h-6c-0.5-0.1-0.9-0.5-0.9-1
		C12.1,15.5,12.4,15.1,13,15z M19,22h-3c-0.5,0-1-0.5-0.9-1c0-0.5,0.4-0.9,0.9-0.9h3V22z M13,25h6v2h-6c-0.5,0-0.9-0.4-1-0.8
		C11.9,25.6,12.4,25.1,13,25C12.9,25,12.9,25,13,25z M16,30h3v2h-3c-0.5,0-0.9-0.4-0.9-0.9C15.1,30.5,15.4,30.1,16,30z M37,21
		c0-1.6-1.3-3-3-3s-3,1.3-3,3s1.3,3,3,3l0,0C35.7,24,37,22.7,37,21z M34,22.3c-0.7,0-1.3-0.6-1.3-1.3s0.6-1.3,1.3-1.3
		s1.3,0.6,1.3,1.3C35.3,21.7,34.7,22.3,34,22.3L34,22.3z M42.5,40c1.3,0,2.6-0.3,3.8-0.8c0.9-0.4,1.7-1.1,2.2-2
		c0.4-0.8,0.6-1.7,0.5-2.6c0-0.1-0.1-0.3-0.2-0.3c-0.1-0.1-0.2-0.1-0.4-0.1h-0.9c-0.1,0-0.3,0-0.4,0.1c-0.1,0.1-0.2,0.3-0.2,0.4
		c-0.1,1-0.7,1.9-1.5,2.6c-0.9,0.6-2,0.8-3,0.8c-2.8,0-4.4-1.6-4.5-4.7c0-0.5,0-1.2,0-2c0-0.9,0-2.2,0-2.6c0.1-3.1,1.7-4.8,4.5-4.8
		c1.1,0,2.1,0.3,3,0.8c0.8,0.6,1.4,1.6,1.6,2.6c0,0.2,0.1,0.3,0.2,0.4c0.1,0.1,0.2,0.1,0.4,0.1h0.8c0.1,0,0.3,0,0.4-0.1
		c0.1-0.1,0.2-0.2,0.2-0.3c0.1-0.9-0.1-1.8-0.5-2.6c-0.6-0.9-1.3-1.5-2.3-2c-1.2-0.6-2.5-0.9-3.8-0.8c-1.8-0.1-3.5,0.6-4.7,1.8
		c-1.2,1.3-1.8,3-1.8,4.8c0,0.5,0,1.8,0,2.8c0,1,0,1.7,0,2.1c0,1.8,0.6,3.5,1.8,4.8C39,39.5,40.8,40.2,42.5,40L42.5,40L42.5,40z"/>
</g>
</svg>
