<?xml version="1.0" encoding="utf-8"?>
<!-- Generator: Adobe Illustrator 23.0.2, SVG Export Plug-In . SVG Version: 6.00 Build 0)  -->
<svg version="1.1" id="Слой_1" xmlns="http://www.w3.org/2000/svg" xmlns:xlink="http://www.w3.org/1999/xlink" x="0px" y="0px"
	 viewBox="0 0 25 25" style="enable-background:new 0 0 25 25;" xml:space="preserve">
<style type="text/css">
	.st0{fill-rule:evenodd;clip-rule:evenodd;fill:#E72F2A;}
</style>
<g id="date">
	<path id="date-2" class="st0" d="M12.5,0C5.6,0,0,5.6,0,12.5S5.6,25,12.5,25S25,19.4,25,12.5l0,0C25,5.6,19.4,0,12.5,0z M12.3,24
		C6,23.9,1,18.8,1,12.5C1,6.4,5.9,0.8,12.3,0.8c6.4-0.2,11.7,4.9,11.9,11.3C24.5,18.5,19.4,23.8,13,24C12.8,24,12.6,24,12.3,24z
		 M13,12.2V6.6c0-0.4-0.3-0.7-0.7-0.7c-0.4,0-0.3,0.3-0.3,0.7v6.2l3.6,4c0.1,0.1,0.3,0.2,0.5,0.2c0.2,0,0,0.1,0.1-0.1
		c0.3-0.3,0.3-0.7,0-1c0,0,0,0,0,0L13,12.2z"/>
</g>
</svg>
