<?xml version="1.0" encoding="utf-8"?>
<!-- Generator: Adobe Illustrator 23.0.2, SVG Export Plug-In . SVG Version: 6.00 Build 0)  -->
<svg version="1.1" id="Слой_1" xmlns="http://www.w3.org/2000/svg" xmlns:xlink="http://www.w3.org/1999/xlink" x="0px" y="0px"
	 viewBox="0 0 49 62" style="enable-background:new 0 0 49 62;" xml:space="preserve">
<style type="text/css">
	.st0{fill-rule:evenodd;clip-rule:evenodd;fill:#E7312A;}
</style>
<g id="dolgovehnost">
	<path id="dolgovehnost-2" class="st0" d="M1.1,40.1L0.9,13c0,0,1.2-1.8,2-1.9c4.1-0.4,8.2-1.5,12-3.1c3.1-1.5,5.9-3.5,8.3-5.9L25,1
		L26.8,2c2.7,2.6,5.8,4.7,9.2,6.1c3.6,1.4,7.3,2.4,11.1,2.9C48,11.2,49,13,49,13l0,27.1c0,0.6,0,1.3-0.2,1.9c-0.4,0.8-1,1.6-1.6,2.2
		c-2.5,2.8-5.2,5.4-8.1,7.8C35.2,55.2,29,59.1,29,59.1L25,61l-4-1.9c-3.6-2.1-6.9-4.4-10.1-7c-2.5-2.1-4.9-4.4-7-6.9
		c-0.9-0.9-1.7-2-2.4-3.1C1.3,41.5,1.1,40.8,1.1,40.1z M25.1,3.5C18.4,10.1,3,13.1,3,13.1L3,41c1,1.3,2.1,2.6,3.2,3.9
		c1.8,2,3.8,3.8,5.9,5.6c3,2.6,8.9,6.7,8.9,6.7l4.1,2.1l4-2.1c0,0,6.1-4.2,9-6.7c2.3-1.9,4.6-4,6.7-6.2c2.2-2.5,2.4-3.2,2.4-3.2
		L46.9,13C46.9,13,31.8,10.1,25.1,3.5L25.1,3.5z M25.1,9c-2.4,2.1-5.1,3.8-8,5.1c-3.2,1.3-6.6,2.3-10.1,3l0.1,18l-2-0.2l0-18.2
		c0,0,0.9-1.5,1.8-1.7c6.8-1.2,11.9-3.2,17.1-7.8c0.7-0.6,2.3,0,2.3,0C26,7.8,25.6,8.4,25.1,9L25.1,9z M43.1,17L43,37.2
		c0,0-0.4,2.2-0.6,3c-0.2,0.5-3.4,3.2-7.3,6.7c-3.9,3.5-10,7.8-10,7.8l0.1,1.2c0.1,0.3,0.4,0.5,0.7,0.3c0.1,0,0.2-0.1,0.2-0.1
		c2.7-1.9,9.3-6.8,10.4-7.8c3.4-3.2,7.1-6.3,7.8-7.4c0.5-1.2,0.7-2.4,0.7-3.7L45,17L43.1,17z M22.2,34.8l9.3-9.7
		c0.3-0.4,0.9-0.4,1.2,0c0,0,0,0,0,0c0.4,0.4,0.4,1,0,1.3l-10,10.4c-0.3,0.4-0.9,0.4-1.2,0.1c0,0,0,0,0,0l-4.4-4.5
		c-0.4-0.4-0.4-1,0-1.3c0.3-0.4,0.9-0.4,1.2,0c0,0,0,0,0,0L22.2,34.8z"/>
</g>
</svg>
