<?xml version="1.0" encoding="utf-8"?>
<!-- Generator: Adobe Illustrator 23.0.2, SVG Export Plug-In . SVG Version: 6.00 Build 0)  -->
<svg version="1.1" id="Слой_1" xmlns="http://www.w3.org/2000/svg" xmlns:xlink="http://www.w3.org/1999/xlink" x="0px" y="0px"
	 viewBox="0 0 30 24" style="enable-background:new 0 0 30 24;" xml:space="preserve">
<style type="text/css">
	.st0{fill-rule:evenodd;clip-rule:evenodd;fill:#E7312A;}
</style>
<g id="foto">
	<path id="foto-2" class="st0" d="M28.8,0H1.2C0.5,0,0,0.5,0,1.1v21.8C0,23.5,0.5,24,1.2,24h27.7c0.6,0,1.1-0.5,1.2-1.1V1.1
		C30,0.5,29.4,0,28.8,0C28.8,0,28.8,0,28.8,0L28.8,0z M29,23H1v-3.9l7.3-5.2l4.1,3.8l0,0l0,0l0,0l0,0l0,0l0,0l2.4,2.3
		c0.3,0.3,0.7,0.3,1,0c0.3-0.2,0.3-0.2,0-0.4l-2-2l5.6-5.6l9.6,7.4L29,23L29,23L29,23z M29,17.9L29,17.9l-9.1-7
		c-0.3-0.2-0.7-0.2-1,0l-5.9,5.9l-4.3-4c-0.3-0.2-0.7-0.2-1,0L1,17.6V1h28V17.9L29,17.9z M8.9,11.1L8.9,11.1c2-0.1,3.5-1.8,3.3-3.8
		c-0.1-2-1.8-3.5-3.8-3.3C6.6,4.1,5.2,5.7,5.2,7.5C5.2,9.6,6.9,11.1,8.9,11.1L8.9,11.1z M8.9,5.2L8.9,5.2c1.3,0.1,2.3,1.2,2.2,2.5
		S9.9,9.9,8.6,9.9C7.4,9.8,6.5,8.8,6.4,7.5C6.5,6.2,7.6,5.2,8.9,5.2L8.9,5.2z"/>
</g>
</svg>
