<?xml version="1.0" encoding="utf-8"?>
<!-- Generator: Adobe Illustrator 23.0.2, SVG Export Plug-In . SVG Version: 6.00 Build 0)  -->
<svg version="1.1" id="Слой_1" xmlns="http://www.w3.org/2000/svg" xmlns:xlink="http://www.w3.org/1999/xlink" x="0px" y="0px"
	 viewBox="0 0 60 56" style="enable-background:new 0 0 60 56;" xml:space="preserve">
<style type="text/css">
	.st0{fill-rule:evenodd;clip-rule:evenodd;fill:#E7312A;}
</style>
<g id="idealnaya_poverxnost">
	<path id="idealnaya_poverxnost-2" class="st0" d="M53,10h4.8c0.1,0,0.1,0.1,0.1,0.1l0.1,1l0,21l0,7.7L58,54L52,54l-0.8,1.5h-0.8
		L51,54h-6l-1.2,1.5h-0.8L43,54h-5l-1.6,1.5h-0.8L36,54h-5l-1.9,1.5h-0.8L29,54h-5l-2.3,1.5H21L22,54h-5l-2.7,1.5h-0.8L15,54H9.1
		C9.1,54,9,54,9,53.9c0,0,0,0,0,0l-1.5,0v-0.7L9,53.1v-5.7l-2,0.5v6.1C7,54.5,7.6,56,8.3,56h50.5c0.7,0,1.2-1.5,1.2-2.1V9.1
		C60,8.5,59.5,8,58.9,8c0,0,0,0-0.1,0H53V10L53,10z M7.5,53.2v0.7L10,54l9.7-9.9l-1.3-0.5L9,53L7.5,53.2z M13.6,55.5h0.8L17,54
		l7.6-7.7l-1.3-0.6L15,54L13.6,55.5z M58.5,10.7V10l-0.3,0.8L53,16v2l5-5L58.5,10.7z M20.9,55.5h0.8L24,54l5.6-5.6l-1.2-0.8L22,54
		L20.9,55.5z M58.5,18v-0.8L58.1,18L53,23l0,2l5.1-5L58.5,18z M28.3,55.5h0.8L31,54l3.4-3.3L33,49.9L29,54L28.3,55.5z M58.5,25.3
		v-0.7L58,25l-5,5v2l5-5L58.5,25.3z M58,32l-5,5l0,2.1l5.8-5.8L58,32z M35.7,55.5h0.8L38,54l7.9-8l-2.4,0.4L36,54L35.7,55.5z
		 M43.1,55.5h0.8L45,54l13.2-13.2l0.1-2.1L43,54L43.1,55.5z M50.4,55.5h0.8L52,54l6-6l0.5-0.8l0.3-1.6L58,46l-8,8L50.4,55.5z
		 M0,50.2c0,0.2,0.1,0.4,0.2,0.5c0.1,0.1,0.2,0.1,0.3,0.1c0.1,0,1.1,0,1.1,0L7,48.2l2-0.8l8.8-4l-0.2-0.1c-0.3-0.4-0.4-0.9-0.5-1.4
		l0,0L2,48.3V9l15-7V0.5c0-0.2,0.1-0.3,0.2-0.4c0,0,0.1,0,0.1,0c0,0,0,0,0,0L0.3,7.5C0.1,7.6,0,7.8,0,8V50.2L0,50.2z M17.4,0
		C17.5,0,17.5,0,17.4,0C17.5,0,17.5,0,17.4,0L17.4,0z M17.6,0L17.6,0z M18.6,0C18.6,0,18.6,0,18.6,0C18.6,0,18.6,0,18.6,0z M34.9,51
		c0,0,0.1,0,0.1,0C34.9,51.1,34.9,51.1,34.9,51z M35.1,51C35.1,51,35.1,51,35.1,51C35.1,51,35.1,51,35.1,51z M17,0.5v42.2
		c0.1,0.2,0.3,0.4,0.5,0.5l0.2,0.1l0.5,0.2l0.5,0.2l2,0.9l0.5,0.2l2.6,1.1l2,0.9l0.5,0.2l2.6,1.1l5.1,2.5l0.6,0.3c0,0,0,0,0,0
		L34.7,51c-0.2-0.2-0.2-0.5-0.2-0.8L34,48.5L19,42V2l15,7V8.7c0.2-0.4,0.4-0.8,0.8-1.2L35,7.4L18.7,0.1c0,0,0,0,0,0c0,0-0.1,0-0.1,0
		s0,0-0.1,0s-0.9,0-0.9,0c0,0,0,0-0.1,0c0,0,0,0-0.1,0s0,0-0.1,0c0,0-0.1,0-0.1,0C17.1,0.2,17,0.4,17,0.5z M34,48.5l0.4,1.7
		c0,0.3,0.1,0.5,0.2,0.8l0.1,0.1c0,0,0,0,0,0c0,0,0.1,0,0.1,0c0,0,0.1,0,0.1,0c0,0,0,0,0,0c0,0,0,0,0,0l2.8-1.5l1.4-0.6l6.6-2.8
		l5.2-2.3l1.5-0.5c0,0,0.1,0,0.1-0.1c0,0,0.1-0.1,0.1-0.1C53,43,53,42.8,53,42.7V0.5c0-0.2-0.1-0.3-0.2-0.4C52.5,0,52.2,0,52,0
		L35,7.4l-0.2,0.1c-0.3,0.3-0.6,0.7-0.8,1.2L34,48.5L34,48.5z M36,9l15-6.9V42l-15,6.5V9z"/>
</g>
</svg>
