<?xml version="1.0" encoding="utf-8"?>
<!-- Generator: Adobe Illustrator 23.0.2, SVG Export Plug-In . SVG Version: 6.00 Build 0)  -->
<svg version="1.1" id="Слой_1" xmlns="http://www.w3.org/2000/svg" xmlns:xlink="http://www.w3.org/1999/xlink" x="0px" y="0px"
	 viewBox="0 0 70 70" style="enable-background:new 0 0 70 70;" xml:space="preserve">
<style type="text/css">
	.st0{fill:#E7312A;}
	.st1{fill-rule:evenodd;clip-rule:evenodd;fill:#FFFFFF;}
</style>
<g id="kitchen">
	<g id="Эллипс_714_копия_2">
		<path class="st0" d="M35,0C15.7,0,0,15.7,0,35s15.7,35,35,35s35-15.7,35-35S54.3,0,35,0L35,0z"/>
	</g>
	<path id="кухня" class="st1" d="M55,30.9v-2.6c0-0.4-0.2-0.9-1-0.8c-0.6,0-0.9,0.2-0.9,0.8v2.2c-1.6-0.2-2.6-0.1-4.1,0.6v-2.7
		c0-0.6-0.4-0.8-1-0.8c-0.7,0-1,0.3-1,0.8l0,0v3.8c-1.1,0.8-1.2,1.1-3.5,1.2c-2,0-2.8-0.7-2.8-0.7l0,0v-4.2c0-0.6-0.4-0.8-1-0.8
		c-0.7,0-1,0.4-1,0.8l0,0v2.7c-1.3-0.6-5.6-0.9-6.4-0.9H32v-1.8c0.1-1-1.9-1-2-0.1v2.9c-0.2,1-2.1,1.7-3,1.8v-7.2
		c0-0.4,0.3-0.7,0.7-0.7h30.5c0.4,0,0.7,0.3,0.7,0.7v7.5C57.3,33.2,55.5,31.1,55,30.9L55,30.9z M53.9,32.4c0.9,0.5,2.4,2.7,6.2,2.6
		c0.4,0,0.8-0.4,0.8-0.8l0,0v-8.4c0-1.4-1-2.5-2.4-2.7H27.8c-1.4,0.1-2.6,1.3-2.7,2.7v8.4c0,0.4,0.4,0.8,0.8,0.8l0,0l0,0
		c1.8,0.1,3.5-0.4,4.9-1.4c0.8-0.6,1.2-1.5,1.2-1.5V32l0,0v-0.1c3.5-0.1,6.8,0.9,6.8,0.9c0,0.5,0.3,1.2,0.8,1.6
		c0.1,0.1,0.2,0.1,0.4,0.2l0,0v7.6c-3.7,0.2-5.9,3.5-5.9,7.2v1c0,0.4,0.4,0.8,0.8,0.8h3.6c0.4,0,0.8-0.4,0.8-0.8
		c0-1.5,1.2-2.2,2.6-2.2H44c1.1-0.2,2.1,0.6,2.3,1.7c0,0.2,0,0.3,0,0.5c0,0.4,0.4,0.8,0.8,0.8h4c0.4,0,0.8-0.4,0.8-0.8v-1
		c0-3.7-2.2-7-6-7.2v-7.3v-0.1c0.8-0.3,1.6-0.7,2.3-1.3c1.1-0.9,2.4-1.4,3.8-1.5c0.6-0.1,1.2,0,1.7,0.3L53.9,32.4z M44.1,35.1v8.1
		c0,0.4,0.4,0.8,0.8,0.8h0.5c2.9,0,4.5,2.2,4.6,5.1L47.9,49c-0.3-1.9-2-3.2-3.9-3.1h-2.1c-2-0.1-3.7,1.2-4.2,3.1h-1.8
		c0.1-2.9,1.9-5,4.8-5h0.5c0.4,0,0.8-0.4,0.8-0.8v-8.1l0,0c0.4,0.1,0.9,0.1,1.4,0.1h0.1C43.6,35.1,43.8,35.1,44.1,35.1L44.1,35.1z
		 M16,50.2v-6c0-0.7,0.6-1.3,1.4-1.3c0,0,0,0,0.1,0h3.2c0.7-0.1,1.4,0.5,1.4,1.2c0,0,0,0,0,0.1v6c0,0.4,0.4,0.8,0.8,0.8h4.3
		c0.4,0,0.8-0.4,0.8-0.8V37.9c0-0.4-0.4-0.8-0.8-0.8l0,0H14.1V39h12v10.1H24v-4.8c0-1.7-1.4-3.1-3.1-3.2h-3.5
		c-1.8,0.1-3.2,1.5-3.3,3.2v4.8h-2V22.2c0-0.6,0.4-1,1-1s1,0.5,1,1l0,0L14.2,37H16v0.6V22.2c-0.2-1.6-1.7-2.8-3.4-2.6
		c-1.4,0.2-2.4,1.2-2.6,2.6v27.9c0.2,0.5,0.6,0.8,1.2,0.8h3.6C15.3,51,15.8,50.7,16,50.2L16,50.2z"/>
</g>
</svg>
