<?xml version="1.0" encoding="utf-8"?>
<!-- Generator: Adobe Illustrator 23.0.2, SVG Export Plug-In . SVG Version: 6.00 Build 0)  -->
<svg version="1.1" id="Слой_1" xmlns="http://www.w3.org/2000/svg" xmlns:xlink="http://www.w3.org/1999/xlink" x="0px" y="0px"
	 viewBox="0 0 70 70" style="enable-background:new 0 0 70 70;" xml:space="preserve">
<style type="text/css">
	.st0{fill:#E7312A;}
	.st1{fill-rule:evenodd;clip-rule:evenodd;fill:#FFFFFF;}
</style>
<g id="living_room">
	<g id="Эллипс_714_копия_5">
		<path class="st0" d="M35,0C15.7,0,0,15.7,0,35s15.7,35,35,35s35-15.7,35-35S54.3,0,35,0L35,0z"/>
	</g>
	<path id="гостинная" class="st1" d="M16.7,50h36.6c0.2,0,0.4-0.1,0.5-0.2l0.1-0.1c0.1-0.1,0.1-0.3,0.1-0.4v-9.7
		c0-0.2-0.1-0.4-0.2-0.5L53.7,39c-0.1-0.1-0.3-0.1-0.5-0.1H16.7c-0.2,0-0.4,0.1-0.5,0.2l0,0c-0.1,0.1-0.2,0.3-0.2,0.5v9.7
		c0,0.2,0.1,0.4,0.2,0.5C16.3,49.9,16.5,50,16.7,50L16.7,50L16.7,50z M18.1,29.1v-6c0-1,0-4.1,3.9-4.1c17,0,8.9,0,25.9,0
		c3.4,0,3.9,2.3,3.9,4.1V29c1.1,0,2.1,0.9,2.1,2.1c0,0.1,0,0.2,0,0.3v5.2c0,0.4,0.2,0.4,0.2,0.4c1.1,1,1.8,0.9,1.8,2.3v10
		c0,1.4-1.1,2.6-2.6,2.7l0,0H16.7c-2.7,0.1-2.8-3.3-2.8-2.7v-10c0-1.4,1-1.3,2.1-2.3v-5.9c-0.1-1,0.7-1.9,1.6-2
		C17.9,29.1,18.1,29.1,18.1,29.1z M50,29L50,29v-5.9c0-2.7-0.9-2.2-2.1-2.2H22c-1.1,0.1-1.9,0.7-2,1.7c0,0.2,0,0.3,0,0.5v6h5.1
		c0.6,0,2,0.1,1.9,2.2v5.2c0,0.1,0,0.3,0,0.4h16.1c0-0.2,0-0.3,0-0.4v-5.2c0-0.6,0-2.3,1.9-2.3H50L50,29z M51.6,31h-6.1
		c-0.1,0-0.2,0-0.3,0.1c-0.2,0-0.2,0.2-0.2,0.3v5.2c0,0.1,0,0.2,0.1,0.3s0.2,0.1,0.3,0.1h6.2c0.1,0,0.2,0,0.3-0.1s0.1-0.2,0.1-0.3
		v-5.2c0-0.1-0.1-0.2-0.1-0.3C51.8,31,51.7,30.9,51.6,31L51.6,31z M24.5,31h-6.1c-0.1,0-0.2,0-0.3,0.1c-0.1,0-0.1,0.2-0.1,0.3v5.2
		c0,0.1,0.1,0.2,0.1,0.3c0.1,0.1,0.2,0.1,0.3,0.1h6.1c0.1,0,0.2-0.1,0.3-0.1c0.1-0.1,0.1-0.2,0.1-0.3v-5.2c0-0.1,0-0.2-0.1-0.3
		C24.8,31,24.6,30.9,24.5,31L24.5,31z"/>
</g>
</svg>
