<?xml version="1.0" encoding="utf-8"?>
<!-- Generator: Adobe Illustrator 23.0.2, SVG Export Plug-In . SVG Version: 6.00 Build 0)  -->
<svg version="1.1" id="Слой_1" xmlns="http://www.w3.org/2000/svg" xmlns:xlink="http://www.w3.org/1999/xlink" x="0px" y="0px"
	 viewBox="0 0 194 38" style="enable-background:new 0 0 194 38;" xml:space="preserve">
<style type="text/css">
	.st0{enable-background:new    ;}
	.st1{fill:#FFFFFF;}
</style>
<g id="logo_w">
	<g class="st0">
		<path class="st1" d="M21.6,26.1c-1.6,1.4-3.8,2.1-6.7,2.3v5.2h-4v-5.2c-2.9-0.2-5.1-1-6.7-2.3c-1.6-1.3-2.3-3.2-2.3-5.6
			c0-2.3,0.8-4.1,2.3-5.4c1.5-1.3,3.8-2,6.7-2.2V7.3h4v5.5c2.9,0.2,5.1,1,6.7,2.3s2.3,3.1,2.3,5.4C23.9,22.9,23.1,24.7,21.6,26.1z
			 M7.3,23.6c0.8,0.7,2,1.2,3.6,1.4v-8.8c-1.7,0.2-2.9,0.6-3.6,1.3c-0.8,0.7-1.1,1.7-1.1,3C6.1,21.9,6.5,22.9,7.3,23.6z M18.6,23.6
			c0.8-0.7,1.2-1.8,1.2-3.1c0-1.3-0.4-2.3-1.2-3c-0.8-0.7-2-1.1-3.7-1.3V25C16.6,24.8,17.8,24.4,18.6,23.6z"/>
		<path class="st1" d="M39.6,13.8c1.1,0.6,2,1.5,2.7,2.7c0.7,1.2,1,2.5,1,4.1c0,1.5-0.3,2.9-1,4.1c-0.7,1.2-1.6,2.1-2.7,2.7
			c-1.1,0.6-2.4,1-3.8,1c-1.9,0-3.4-0.6-4.5-1.8v7h-4.4V13H31v1.7c1.1-1.3,2.7-2,4.7-2C37.2,12.8,38.4,13.1,39.6,13.8z M37.8,23.6
			c0.7-0.8,1.1-1.8,1.1-3c0-1.3-0.4-2.3-1.1-3c-0.7-0.8-1.6-1.1-2.8-1.1c-1.1,0-2,0.4-2.8,1.1c-0.7,0.8-1.1,1.8-1.1,3
			c0,1.3,0.4,2.3,1.1,3c0.7,0.8,1.6,1.1,2.8,1.1C36.1,24.7,37.1,24.4,37.8,23.6z"/>
	</g>
	<g class="st0">
		<path class="st1" d="M101.6,11h4.3v5.9h6.6V11h4.4v15.1h-4.4v-5.6H106v5.6h-4.3V11z"/>
		<path class="st1" d="M133.7,14.6h-5.1v11.5h-4.3V14.6h-5.1V11h14.5V14.6z"/>
		<path class="st1" d="M147.3,12.4c1.2,1.1,1.9,2.8,1.9,5v8.6h-4.1v-1.9c-0.8,1.4-2.4,2.1-4.6,2.1c-1.2,0-2.2-0.2-3-0.6
			c-0.8-0.4-1.5-0.9-1.9-1.6c-0.4-0.7-0.7-1.5-0.7-2.4c0-1.4,0.5-2.5,1.6-3.3s2.7-1.2,4.9-1.2h3.5c0-1-0.3-1.7-0.9-2.2
			c-0.6-0.5-1.4-0.8-2.6-0.8c-0.8,0-1.6,0.1-2.4,0.4c-0.8,0.3-1.4,0.6-2,1l-1.6-3.1c0.8-0.6,1.8-1,3-1.3c1.1-0.3,2.3-0.5,3.5-0.5
			C144.2,10.8,146,11.3,147.3,12.4z M143.5,22.8c0.6-0.3,1-0.9,1.2-1.5v-1.5h-3c-1.8,0-2.7,0.6-2.7,1.8c0,0.6,0.2,1,0.7,1.3
			c0.4,0.3,1,0.5,1.8,0.5C142.3,23.4,143,23.2,143.5,22.8z"/>
		<path class="st1" d="M167.4,11v15.1H163V14.6h-4.8l-0.1,2.7c-0.1,2-0.3,3.6-0.6,4.9c-0.3,1.3-0.8,2.3-1.5,3.1
			c-0.7,0.7-1.6,1.1-2.8,1.1c-0.6,0-1.4-0.1-2.3-0.3l0.2-3.6c0.3,0,0.5,0.1,0.6,0.1c0.7,0,1.1-0.2,1.5-0.7c0.3-0.5,0.5-1.1,0.7-1.8
			c0.1-0.7,0.2-1.7,0.3-2.9l0.2-6H167.4z"/>
		<path class="st1" d="M184.3,17.1c1,0.9,1.6,2.1,1.6,3.7c0,1.7-0.6,3-1.8,3.9c-1.2,0.9-2.8,1.4-4.9,1.4l-7.6,0V11h4.3v4.8h3.8
			C181.7,15.8,183.2,16.3,184.3,17.1z M180.7,22.5c0.4-0.4,0.7-0.9,0.7-1.7c0-0.7-0.2-1.3-0.7-1.6s-1.1-0.5-1.9-0.5l-2.8,0V23h2.8
			C179.6,23,180.3,22.8,180.7,22.5z"/>
	</g>
	<circle id="Эллипс_661" class="st1" cx="64.5" cy="5.5" r="3.5"/>
	<circle id="Эллипс_661_копия_6" class="st1" cx="75.5" cy="3.5" r="3.5"/>
	<circle id="Эллипс_661_копия_7" class="st1" cx="86" cy="10" r="4"/>
	<circle id="Эллипс_661_копия_8" class="st1" cx="89" cy="22" r="4"/>
	<circle id="Эллипс_661_копия" class="st1" cx="57" cy="15" r="3"/>
	<circle id="Эллипс_661_копия_2" class="st1" cx="56.5" cy="26.5" r="2.5"/>
	<circle id="Эллипс_661_копия_3" class="st1" cx="64" cy="34" r="2"/>
	<circle id="Эллипс_661_копия_4" class="st1" cx="75" cy="36" r="2"/>
	<circle id="Эллипс_661_копия_5" class="st1" cx="84.5" cy="32.5" r="1.5"/>
</g>
</svg>
