<?xml version="1.0" encoding="utf-8"?>
<!-- Generator: Adobe Illustrator 23.0.2, SVG Export Plug-In . SVG Version: 6.00 Build 0)  -->
<svg version="1.1" id="Слой_1" xmlns="http://www.w3.org/2000/svg" xmlns:xlink="http://www.w3.org/1999/xlink" x="0px" y="0px"
	 viewBox="0 0 22 30" style="enable-background:new 0 0 22 30;" xml:space="preserve">
<style type="text/css">
	.st0{fill:#FFFFFF;}
</style>
<g id="pin">
	<g id="pin-2">
		<path class="st0" d="M11,1.2L11,1.2c3.4,0,6.6,1.7,8.4,4.6c2.1,3.3,2.1,7.5,0,10.8l-0.2,0.3L11,28.3L2.9,17l-0.3-0.4
			c-1.4-2.3-1.9-4.9-1.3-7.5c0.6-2.6,2.1-4.8,4.4-6.3C7.2,1.8,9.1,1.2,11,1.2 M10.9,16.4c2.9,0,5.2-2.3,5.3-5.2l0-0.1l0,0
			c0-2.9-2.3-5.3-5.2-5.3l-0.1,0c-2.9,0-5.2,2.3-5.3,5.2c0,1.4,0.5,2.7,1.5,3.8S9.5,16.4,10.9,16.4L10.9,16.4 M11,0.2
			C9,0.2,6.9,0.8,5.1,2C0,5.2-1.5,12,1.7,17.1h0L11,30l9.3-12.9c0,0,0,0,0,0c2.3-3.6,2.3-8.2,0-11.8C18.2,2,14.6,0.2,11,0.2L11,0.2z
			 M10.9,15.4C10.9,15.4,10.9,15.4,10.9,15.4c-2.4,0-4.3-2-4.3-4.3c0-2.3,1.9-4.2,4.3-4.2c0,0,0,0,0.1,0c2.3,0,4.2,1.9,4.2,4.3
			c0,0,0,0,0,0.1C15.2,13.5,13.3,15.4,10.9,15.4L10.9,15.4z"/>
	</g>
</g>
</svg>
