<?xml version="1.0" encoding="utf-8"?>
<!-- Generator: Adobe Illustrator 23.0.2, SVG Export Plug-In . SVG Version: 6.00 Build 0)  -->
<svg version="1.1" id="Слой_1" xmlns="http://www.w3.org/2000/svg" xmlns:xlink="http://www.w3.org/1999/xlink" x="0px" y="0px"
	 viewBox="0 0 46 52" style="enable-background:new 0 0 46 52;" xml:space="preserve">
<style type="text/css">
	.st0{fill-rule:evenodd;clip-rule:evenodd;fill:#E7312A;}
</style>
<g id="Pin_2">
	<path id="Pin_2-2" class="st0" d="M23.1,52c-0.5,0-1-0.2-1.4-0.5c-2.1-1.8-21-17.7-21-29.1c0-12,10.1-21.7,22.4-21.7
		s22.4,9.7,22.4,21.7c0,11.4-18.8,27.3-21,29.1C24.1,51.8,23.6,52,23.1,52L23.1,52z M23,14c4.4,0,8,3.6,8,8s-3.6,8-8,8s-8-3.6-8-8
		C15,17.6,18.6,14,23,14z"/>
</g>
</svg>
