<?xml version="1.0" encoding="utf-8"?>
<!-- Generator: Adobe Illustrator 23.0.2, SVG Export Plug-In . SVG Version: 6.00 Build 0)  -->
<svg version="1.1" id="Слой_1" xmlns="http://www.w3.org/2000/svg" xmlns:xlink="http://www.w3.org/1999/xlink" x="0px" y="0px"
	 viewBox="0 0 60 60" style="enable-background:new 0 0 60 60;" xml:space="preserve">
<style type="text/css">
	.st0{fill:#FFFFFF;}
	.st1{fill-rule:evenodd;clip-rule:evenodd;fill:#FFFFFF;}
</style>
<g id="play">
	<g id="Эллипс_773">
		<path class="st0" d="M30,2c15.4,0,28,12.6,28,28S45.4,58,30,58S2,45.4,2,30S14.6,2,30,2 M30,0C13.4,0,0,13.4,0,30s13.4,30,30,30
			s30-13.4,30-30S46.6,0,30,0L30,0z"/>
	</g>
	<path id="Фигура_775" class="st1" d="M22.2,44c-1.8,0-3.2-1.4-3.2-3.2V19.2c0-1.8,1.4-3.2,3.2-3.2c0.5,0,1,0.1,1.4,0.3
		l21.6,10.8c1.6,0.8,2.2,2.7,1.4,4.3c0,0,0,0,0,0c-0.3,0.6-0.8,1.1-1.4,1.4L23.6,43.7C23.2,43.9,22.7,44,22.2,44z M22.2,18
		c-0.2,0-0.4,0.1-0.6,0.2c-0.4,0.2-0.6,0.6-0.6,1v21.6c0,0.7,0.5,1.2,1.2,1.2c0.2,0,0.4,0,0.5-0.1l21.6-10.8c0.6-0.3,0.8-1,0.5-1.6
		c0,0,0,0,0,0c-0.1-0.2-0.3-0.4-0.5-0.5L22.7,18.1C22.6,18,22.4,18,22.2,18z"/>
</g>
</svg>
