<?xml version="1.0" encoding="utf-8"?>
<!-- Generator: Adobe Illustrator 23.0.2, SVG Export Plug-In . SVG Version: 6.00 Build 0)  -->
<svg version="1.1" id="Слой_1" xmlns="http://www.w3.org/2000/svg" xmlns:xlink="http://www.w3.org/1999/xlink" x="0px" y="0px"
	 viewBox="0 0 26 24" style="enable-background:new 0 0 26 24;" xml:space="preserve">
<style type="text/css">
	.st0{fill-rule:evenodd;clip-rule:evenodd;fill:#EFF1FA;}
</style>
<g id="potolok">
	<path id="potolok-2" class="st0" d="M13.1,15c-0.2,0-0.3,0-0.5-0.1L1.2,8.4C0.9,8.2,0.7,7.9,0.7,7.5c0-0.4,0.2-0.7,0.5-0.9
		l11.4-6.5c0.3-0.2,0.7-0.2,1,0L25,6.7c0.5,0.3,0.6,0.9,0.4,1.4c-0.1,0.1-0.2,0.3-0.4,0.4l-11.4,6.5C13.5,15,13.3,15,13.1,15
		L13.1,15L13.1,15z M3.7,7.5l9.4,5.4l9.4-5.3L13,2.2L3.7,7.5L3.7,7.5z M13.1,19.5c-0.2,0-0.3,0-0.5-0.1L1.2,12.9
		c-0.5-0.3-0.6-0.9-0.4-1.3c0,0,0,0,0,0c0.2-0.5,0.8-0.7,1.3-0.4c0,0,0,0,0,0l11,6.2L24,11.2c0.5-0.3,1.1-0.1,1.3,0.4c0,0,0,0,0,0
		c0.3,0.5,0.1,1.1-0.4,1.4l-11.4,6.5C13.5,19.5,13.3,19.5,13.1,19.5L13.1,19.5z M13.1,24c-0.2,0-0.3,0-0.5-0.1L1.2,17.4
		c-0.5-0.3-0.6-0.9-0.4-1.4c0.2-0.5,0.8-0.6,1.3-0.4c0,0,0,0,0,0l11,6.2L24,15.7c0.5-0.3,1.1-0.1,1.3,0.4c0,0,0,0,0,0
		c0.3,0.5,0.1,1.1-0.4,1.4l-11.4,6.5C13.5,24,13.3,24,13.1,24L13.1,24L13.1,24z"/>
</g>
</svg>
