<?xml version="1.0" encoding="utf-8"?>
<!-- Generator: Adobe Illustrator 23.0.2, SVG Export Plug-In . SVG Version: 6.00 Build 0)  -->
<svg version="1.1" id="Слой_1" xmlns="http://www.w3.org/2000/svg" xmlns:xlink="http://www.w3.org/1999/xlink" x="0px" y="0px"
	 viewBox="0 0 60 60" style="enable-background:new 0 0 60 60;" xml:space="preserve">
<style type="text/css">
	.st0{fill-rule:evenodd;clip-rule:evenodd;fill:#E7312A;}
</style>
<g id="shymaizolyaciya">
	<path id="shymaizolyaciya-2" class="st0" d="M37.7,38.9c0.3,0.3,0.3,0.8,0,1c0,0,0,0,0,0c-0.1,0.1-0.3,0.2-0.5,0.2
		c-0.2,0-0.4-0.1-0.5-0.2L34,37.1L31.2,40c-0.3,0.3-0.7,0.3-1,0c0,0,0,0,0,0c-0.3-0.3-0.3-0.8,0-1c0,0,0,0,0,0l2.8-2.8l-2.8-2.8
		c-0.3-0.3-0.3-0.8,0-1c0,0,0,0,0,0c0.3-0.3,0.7-0.3,1-0.1c0,0,0,0,0.1,0.1L34,35l2.8-2.8c0.3-0.3,0.7-0.3,1,0c0,0,0,0,0,0
		c0.3,0.3,0.3,0.8,0,1c0,0,0,0,0,0L35,36.1L37.7,38.9z M27,26.5v18.9c0,0.2-0.2,0.4-0.4,0.5c-0.1,0-0.2,0.1-0.3,0.1
		c-0.2,0-0.3-0.1-0.5-0.2L18.6,41h-6c-0.3,0-0.6-0.2-0.7-0.6v-8.8c0-0.3,0.3-0.6,0.7-0.5h6l6.7-4.9c0.4-0.2,0.8-0.2,1.2-0.1
		C26.8,26.1,26.9,26.3,27,26.5z M20,39l5,4V29l-5,3.9L18.1,33H14V39h4.1L20,39z M24.9,57.2c-2.6,0-5.1-0.5-7.5-1.3L14,54.6
		c0,0,0,0,0,0h0l-11.4,3L6,47.2c0.1-0.3,0.1-0.6-0.1-0.8c-6.2-10.5-2.7-24.1,7.8-30.3c0.5-0.3,0.9-0.5,1.4-0.8
		c0.1-0.1,0.2-0.1,0.4-0.2c0.2-0.1,0.4-0.2,0.6-0.3c0.2-0.1,0.4-0.2,0.6-0.2c0.2-0.1,0.4-0.1,0.5-0.2c0.3-0.1,0.6-0.2,0.9-0.3
		c0.1,0,0.2-0.1,0.3-0.1c0.4-0.1,0.8-0.2,1.2-0.3c0,0,0,0,0.1,0c0.4-0.1,0.8-0.2,1.2-0.3c0.1,0,0.2,0,0.3,0c0.3-0.1,0.7-0.1,1-0.2
		c0.1,0,0.2,0,0.3,0c0.3,0,0.6-0.1,1-0.1c0.1,0,0.2,0,0.3,0c0.4,0,0.9,0,1.3,0C37.1,13,47,22.9,47,35.1c0,0.4,0,0.8,0,1.2
		c0,0.2,0,0.4,0,0.5c0,0.2,0,0.4-0.1,0.6s-0.1,0.4-0.1,0.6c0,0.2,0,0.3-0.1,0.5c0,0.2-0.1,0.4-0.1,0.6c0,0.2-0.1,0.3-0.1,0.5
		c0,0.2-0.1,0.4-0.1,0.6c0,0.2-0.1,0.4-0.1,0.5l-0.1,0.5c-0.1,0.2-0.1,0.4-0.2,0.6c-0.1,0.2-0.1,0.3-0.1,0.5
		c-0.1,0.2-0.1,0.4-0.2,0.6c-0.1,0.1-0.1,0.3-0.2,0.4c-0.1,0.2-0.2,0.4-0.3,0.6C41.6,52,33.7,57.2,24.9,57.2z M18.1,9.9
		c7.9-9.4,21.8-10.6,31.2-2.7c8.3,7,10.3,18.9,4.8,28.2c-0.1,0.3-0.2,0.6-0.1,0.8l3.5,10.4l-10.1-2.7c0,0,0-0.1,0-0.1
		c0.2-0.6,0.4-1.2,0.6-1.9c0-0.1,0.1-0.2,0.1-0.3c0.2-0.6,0.3-1.2,0.4-1.9l0.1-0.3c0.1-0.6,0.2-1.3,0.3-2c0-0.1,0-0.2,0-0.2
		c0.1-0.7,0.1-1.4,0.1-2.1C49,21.8,38.2,11,24.9,11c-0.7,0-1.4,0-2.1,0.1c-0.1,0-0.1,0-0.2,0c-0.7,0.1-1.4,0.2-2,0.3l-0.2,0
		c-0.7,0.1-1.3,0.3-2,0.5c-0.1,0-0.2,0-0.2,0.1c-0.6,0.2-1.2,0.4-1.8,0.6c-0.1,0-0.1,0-0.1,0c0.3-0.4-2.8,0.9-3,1.4
		C1.6,20.5-2.6,35.2,3.9,46.8C3.9,46.9,4,46.9,4,47L0.1,58.7c-0.1,0.3,0,0.7,0.2,1C0.5,59.9,0.8,60,1.1,60c0.1,0,0.2,0,0.2,0
		l12.8-3.4c11.8,6,26.3,1.3,32.3-10.6c0-0.1,0.1-0.2,0.1-0.3L58.7,49c0.1,0,0.2,0,0.3,0h0c0.5,0,1-0.5,1-1c0-0.2,0-0.3-0.1-0.5
		L56,36c6.5-11.6,2.4-26.3-9.2-32.9c-11-6.2-25-2.9-32,7.7C14.6,11.3,17.7,10.3,18.1,9.9L18.1,9.9z"/>
</g>
</svg>
