<?xml version="1.0" encoding="utf-8"?>
<!-- Generator: Adobe Illustrator 23.0.2, SVG Export Plug-In . SVG Version: 6.00 Build 0)  -->
<svg version="1.1" id="Слой_1" xmlns="http://www.w3.org/2000/svg" xmlns:xlink="http://www.w3.org/1999/xlink" x="0px" y="0px"
	 viewBox="0 0 32 32" style="enable-background:new 0 0 32 32;" xml:space="preserve">
<style type="text/css">
	.st0{fill-rule:evenodd;clip-rule:evenodd;fill:#EFF0F5;}
	.st1{fill:#EFF0F5;}
</style>
<g id="telegram_w">
	<path id="telegram_w-2" class="st0" d="M16.4,31.4c-8.6,0-15.5-7-15.5-15.5c0-8.6,7-15.5,15.5-15.5s15.5,7,15.5,15.5
		c0,4.1-1.6,8.1-4.5,11C24.5,29.8,20.5,31.4,16.4,31.4z M16.3,2.3C9,2.2,3.1,8,2.9,15.3c0,0.1,0,0.3,0,0.4
		c-0.1,7.4,5.7,13.5,13.2,13.7c0.1,0,0.1,0,0.2,0c7.6,0,13.7-6.1,13.7-13.7c0-7.4-6.1-13.4-13.5-13.4C16.4,2.3,16.4,2.3,16.3,2.3
		L16.3,2.3z"/>
</g>
<g>
	<g>
		<path class="st1" d="M19.6,23.8c-0.2,0-0.5,0-0.7-0.2c0,0-0.1,0-0.1-0.1l-6-4.6l-2.1-1L7,16.6c0,0,0,0,0,0c-0.1,0-0.9-0.3-1-1.1
			c-0.1-0.7,0.5-1.1,1-1.3l14.7-5.8c0.2-0.1,1-0.4,1.6,0c0.2,0.1,0.5,0.4,0.5,0.9c0,0,0,0.1,0,0.1l-2.6,13.3c0,0,0,0.1,0,0.1
			c0,0.1-0.3,0.6-0.8,0.9C20.1,23.7,19.9,23.8,19.6,23.8z M19.4,22.6c0.1,0.1,0.3,0.1,0.3,0c0.1,0,0.2-0.1,0.2-0.2l2.6-13
			c-0.1,0-0.3,0.1-0.4,0.1c0,0,0,0,0,0L7.4,15.3c0,0,0,0,0,0c-0.1,0-0.2,0.1-0.2,0.1c0.1,0,0.1,0.1,0.2,0.1l3.7,1.2c0,0,0,0,0.1,0
			l2.2,1.1c0,0,0.1,0,0.1,0.1L19.4,22.6z"/>
	</g>
	<g>
		<path class="st1" d="M15.4,20.2L13,22.4c0,0.1-0.4,0.1-0.4,0l0.5-4l0-0.1c0,0,6.7-6,7-6.3s0.2-0.3,0.2-0.3c0-0.3-0.5,0-0.5,0
			l-8.9,5.7c0,0,1.1,3.7,1.3,4.4c0.2,0.7,0.4,0.7,0.4,0.7"/>
		<path class="st1" d="M12.8,23c-0.1,0-0.2,0-0.3,0c-0.5-0.1-0.7-0.6-0.9-1.1c-0.2-0.7-1.3-4.2-1.3-4.4c-0.1-0.2,0-0.5,0.2-0.7
			l8.9-5.7c0,0,0,0,0,0c0.3-0.2,0.7-0.3,1-0.1c0.2,0.1,0.3,0.3,0.3,0.5c0,0,0,0.1,0,0.1c0,0.3-0.2,0.6-0.4,0.8
			c-0.3,0.2-5.9,5.3-6.9,6.2l-0.3,2.7l1.7-1.5c0.2-0.2,0.6-0.2,0.8,0c0.2,0.2,0.2,0.6,0,0.8l-2.4,2.1C13.3,22.9,13.1,23,12.8,23z
			 M11.5,17.6c0.2,0.6,0.5,1.6,0.7,2.4l0.2-1.7c0,0,0-0.1,0-0.1l0-0.1c0-0.1,0.1-0.2,0.2-0.2c1-0.9,2.5-2.2,3.8-3.4L11.5,17.6z"/>
	</g>
	<g>
		<path class="st1" d="M15.4,20.8c-0.1,0-0.3,0-0.4-0.1l-2.3-1.8c-0.3-0.2-0.3-0.6-0.1-0.8c0.2-0.3,0.6-0.3,0.8-0.1l2.3,1.8
			c0.3,0.2,0.3,0.6,0.1,0.8C15.7,20.7,15.6,20.8,15.4,20.8z"/>
	</g>
</g>
</svg>
