<?xml version="1.0" encoding="utf-8"?>
<!-- Generator: Adobe Illustrator 23.0.2, SVG Export Plug-In . SVG Version: 6.00 Build 0)  -->
<svg version="1.1" id="Слой_1" xmlns="http://www.w3.org/2000/svg" xmlns:xlink="http://www.w3.org/1999/xlink" x="0px" y="0px"
	 viewBox="0 0 32 32" style="enable-background:new 0 0 32 32;" xml:space="preserve">
<style type="text/css">
	.st0{fill:url(#SVGID_1_);}
	.st1{fill:#FFFFFF;}
	.st2{fill:#D2E5F1;}
	.st3{fill:#B5CFE4;}
</style>
<g>
	<linearGradient id="SVGID_1_" gradientUnits="userSpaceOnUse" x1="16.3937" y1="0.364" x2="16.3937" y2="31.3227">
		<stop  offset="0" style="stop-color:#42BCE8"/>
		<stop  offset="1" style="stop-color:#23A7DC"/>
	</linearGradient>
	<circle class="st0" cx="16.4" cy="15.9" r="15.5"/>
	<g>
		<path class="st1" d="M24,9.3l-2.8,14c0,0-0.4,1-1.5,0.5l-6.4-4.9L11,17.8l-3.9-1.3c0,0-0.6-0.2-0.7-0.7C6.4,15.3,7.1,15,7.1,15
			l15.6-6.1C22.7,8.9,24,8.4,24,9.3z"/>
		<path class="st2" d="M12.8,23.1c0,0-0.2,0-0.4-0.8c-0.2-0.7-1.4-4.6-1.4-4.6l9.4-6c0,0,0.5-0.3,0.5,0c0,0,0.1,0.1-0.2,0.3
			c-0.3,0.3-7.4,6.7-7.4,6.7"/>
		<path class="st3" d="M15.8,20.8l-2.5,2.3c0,0-0.2,0.2-0.4,0.1l0.5-4.3"/>
	</g>
</g>
</svg>
