<?xml version="1.0" encoding="utf-8"?>
<!-- Generator: Adobe Illustrator 23.0.2, SVG Export Plug-In . SVG Version: 6.00 Build 0)  -->
<svg version="1.1" id="Слой_1" xmlns="http://www.w3.org/2000/svg" xmlns:xlink="http://www.w3.org/1999/xlink" x="0px" y="0px"
	 viewBox="0 0 29 30" style="enable-background:new 0 0 29 30;" xml:space="preserve">
<style type="text/css">
	.st0{fill-rule:evenodd;clip-rule:evenodd;fill:#775295;}
</style>
<g id="viber">
	<path id="viber-2" class="st0" d="M26.4,16.8c-0.7,6.1-5.1,6.5-5.9,6.7c-2.5,0.6-5,0.8-7.6,0.7L8.6,29l0-5.5l0,0
		c-5.8-1.7-5.6-7.9-5.6-11.1s0.7-5.9,2.4-7.7c3.2-3,9.8-2.5,9.8-2.5c5.6,0,8.2,1.7,8.9,2.3C26.1,6.2,27.1,10.5,26.4,16.8 M25.6,2.9
		C24.8,2.2,21.9,0.1,15.3,0c0,0-7.8-0.5-11.6,3.1c-2.1,2.1-2.9,5.3-2.9,9.2S0.6,23.5,7.5,25.4h0l0,3c-0.1,0.6,0.2,1.2,0.8,1.5
		c0.9,0.3,1.5-0.6,2.4-1.6c0.5-0.6,1.2-1.4,1.7-2c2.9,0.3,5.9,0.1,8.8-0.7c0.9-0.3,6.4-1,7.2-8.3C29.3,9.8,28,5.1,25.6,2.9
		 M21.3,17.7c0,0-0.9-0.8-1.3-1.1c-0.4-0.3-1.1-0.7-1.4-0.9c-0.5-0.3-1.2-0.2-1.6,0.2l-0.6,0.7c-0.2,0.2-0.5,0.4-0.9,0.3
		c-1-0.3-1.9-0.9-2.6-1.6c-0.8-0.7-1.4-1.7-1.7-2.8l0-0.1c-0.1-0.3,0-0.6,0.2-0.9l0,0c0.5-0.3,0.9-0.7,1.2-1.2
		c0.3-0.7-0.9-2.2-1.1-2.5c-0.4-0.5-0.8-1-1.2-1.4c-0.4-0.3-1-0.4-1.4-0.1l0,0C7.4,7.5,6.8,8.1,7,9l0.1,0.4c0.9,2.7,2.5,5.3,4.5,7.3
		c2,2,4.3,3.6,6.9,4.6c0.7,0.2,1.4,0,1.9-0.5l0,0c0.5-0.4,0.9-0.9,1.2-1.5l0,0C21.9,18.7,21.8,18.1,21.3,17.7 M17.7,12.4
		c-0.1,0-0.2-0.1-0.2-0.2c0-0.5-0.2-1-0.5-1.4c-0.4-0.3-0.9-0.5-1.4-0.5c-0.1,0-0.2-0.1-0.2-0.2c0,0,0,0,0,0c0-0.1,0.1-0.2,0.2-0.2
		c0,0,0,0,0,0c0.6,0,1.2,0.2,1.6,0.6c0.4,0.5,0.6,1.1,0.6,1.7C17.9,12.3,17.8,12.4,17.7,12.4C17.7,12.4,17.7,12.4,17.7,12.4
		L17.7,12.4 M19.4,13L19.4,13c-0.1,0-0.2-0.1-0.2-0.2c0,0,0,0,0,0c0.1-1.1-0.3-2.2-1.1-3c-0.4-0.4-0.8-0.7-1.3-0.9
		c-0.6-0.2-1.1-0.4-1.8-0.4c-0.1,0-0.2-0.1-0.2-0.2c0-0.1,0.1-0.2,0.2-0.2c1.3,0,2.4,0.6,3.3,1.5c0.8,0.9,1.2,2.1,1.1,3.3
		C19.6,12.9,19.5,13,19.4,13 M21.2,13.7c-0.1,0-0.2-0.1-0.2-0.2c0,0,0,0,0,0c0-1-0.2-2-0.5-2.9c-0.3-0.8-0.8-1.6-1.4-2.2
		c-0.6-0.6-1.3-1.1-2.1-1.4c-0.8-0.3-1.7-0.5-2.5-0.5c-0.1,0-0.2-0.1-0.2-0.2c0,0,0,0,0,0c0-0.1,0.1-0.2,0.2-0.2l0,0
		c1.8,0,3.6,0.7,4.9,2c0.7,0.7,1.2,1.4,1.5,2.3c0.3,1,0.5,2,0.5,3C21.4,13.6,21.3,13.7,21.2,13.7L21.2,13.7L21.2,13.7z"/>
</g>
</svg>
