<?xml version="1.0" encoding="utf-8"?>
<!-- Generator: Adobe Illustrator 23.0.2, SVG Export Plug-In . SVG Version: 6.00 Build 0)  -->
<svg version="1.1" id="Слой_1" xmlns="http://www.w3.org/2000/svg" xmlns:xlink="http://www.w3.org/1999/xlink" x="0px" y="0px"
	 viewBox="0 0 34 34" style="enable-background:new 0 0 34 34;" xml:space="preserve">
<style type="text/css">
	.st0{fill:#E7312A;}
</style>
<g id="video">
	<g id="Эллипс_833">
		<path class="st0" d="M17,1c8.8,0,16,7.2,16,16s-7.2,16-16,16S1,25.8,1,17S8.2,1,17,1 M17,0C7.6,0,0,7.6,0,17s7.6,17,17,17
			s17-7.6,17-17S26.4,0,17,0L17,0z"/>
	</g>
	<g id="Фигура_835">
		<path class="st0" d="M14,11.8l8.2,5.2L14,23V11.8 M13,10v15l11-8L13,10L13,10z"/>
	</g>
</g>
</svg>
