<?xml version="1.0" encoding="utf-8"?>
<!-- Generator: Adobe Illustrator 23.0.2, SVG Export Plug-In . SVG Version: 6.00 Build 0)  -->
<svg version="1.1" id="Слой_1" xmlns="http://www.w3.org/2000/svg" xmlns:xlink="http://www.w3.org/1999/xlink" x="0px" y="0px"
	 viewBox="0 0 30 30" style="enable-background:new 0 0 30 30;" xml:space="preserve">
<style type="text/css">
	.st0{fill-rule:evenodd;clip-rule:evenodd;fill:#FFFFFF;width:40px;}
</style>
<g id="watch">
	<path id="watch-2" class="st0" d="M18.6,19.7c-4.6,0-8.4-3.7-8.4-8.4C10.2,6.7,14,3,18.6,3S27,6.7,27,11.3
		C27,15.9,23.2,19.7,18.6,19.7L18.6,19.7z M9.5,18.3c-1.5-1.9-2.3-4.3-2.3-6.9c0,0,0,0,0-0.1C7.3,5,12.4,0,18.7,0.1
		C25,0.1,30.1,5.3,30,11.6c-0.1,6.2-5.1,11.3-11.4,11.3c-2.7,0-5.2-0.9-7.1-2.5l0,0L2,30l-2-2L9.5,18.3L9.5,18.3z"/>
</g>
</svg>
