<?xml version="1.0" encoding="utf-8"?>
<!-- Generator: Adobe Illustrator 23.0.2, SVG Export Plug-In . SVG Version: 6.00 Build 0)  -->
<svg version="1.1" id="Слой_1" xmlns="http://www.w3.org/2000/svg" xmlns:xlink="http://www.w3.org/1999/xlink" x="0px" y="0px"
	 viewBox="0 0 30 30" style="enable-background:new 0 0 30 30;" xml:space="preserve">
<style type="text/css">
	.st0{fill-rule:evenodd;clip-rule:evenodd;fill:#FFFFFF;}
</style>
<g id="whatsApp_w">
	<path id="whatsApp_w-2" class="st0" d="M15.2,0C7.2,0,0.7,6.6,0.7,14.6c0,2.7,0.7,5.3,2.1,7.5L0.2,30l8-2.6c2.1,1.2,4.5,1.8,7,1.8
		c8.1,0,14.6-6.5,14.6-14.6S23.3,0,15.2,0z M15.2,2.4C8.5,2.5,3.1,8,3.2,14.8c0,2.5,0.8,4.9,2.3,7L4,26.2l4.6-1.5c2,1.3,4.3,2,6.6,2
		c6.7-0.1,12.1-5.6,12-12.3C27.1,7.8,21.8,2.5,15.2,2.4L15.2,2.4z M22.7,18.4c-0.2-0.2-0.4-0.4-0.7-0.5c-0.4-0.2-2.1-1.2-2.5-1.3
		c-0.3-0.2-0.6-0.1-0.8,0.1c0,0,0,0,0,0c-0.3,0.4-1,1.2-1.2,1.4c-0.2,0.2-0.5,0.3-0.8,0.1c0,0,0,0,0,0c-1.1-0.5-2.1-1.1-2.9-2
		c-0.8-0.8-1.4-1.7-2-2.7c-0.2-0.3-0.1-0.6,0.2-0.8c0,0,0,0,0,0c0.2-0.2,0.4-0.4,0.6-0.6c0.2-0.2,0.3-0.4,0.4-0.6
		c0.1-0.2,0.1-0.4,0-0.7c-0.1-0.2-0.8-2.1-1-2.8s-0.6-0.6-0.8-0.7s-0.5,0-0.7-0.1c-0.4,0-0.7,0.2-1,0.4C8.5,8.7,8,9.8,8,10.9
		c0.1,1.4,0.5,2.8,1.4,3.9c0.2,0.3,2.4,4.2,6.1,5.9s3.7,1.1,4.4,1.1c1.1-0.2,2-0.8,2.6-1.7C22.6,19.6,22.7,19,22.7,18.4L22.7,18.4z"
		/>
</g>
</svg>
