<?xml version="1.0" encoding="utf-8"?>
<!-- Generator: Adobe Illustrator 23.0.2, SVG Export Plug-In . SVG Version: 6.00 Build 0)  -->
<svg version="1.1" id="Слой_1" xmlns="http://www.w3.org/2000/svg" xmlns:xlink="http://www.w3.org/1999/xlink" x="0px" y="0px"
	 viewBox="0 0 58 59" style="enable-background:new 0 0 58 59;" xml:space="preserve">
<style type="text/css">
	.st0{fill-rule:evenodd;clip-rule:evenodd;fill:#E7312A;}
</style>
<g id="yhod">
	<path id="yhod-2" class="st0" d="M19.7,2.2c10.9,0.5,31.5,3.5,33.4,4.9s1.9,3.8,2,5.6c0.1,2.8-1,5.7-1.8,9.2
		c-0.7,3.2-1.2,6.4-1.3,7.2c-0.4,2.1-1.1,21-1.1,21L7.8,48.9l-1.1-8.8L5,39.9L6.1,51l33.7,0.8l0,0.1l-26.7,4L12.6,53h-1.8l0,0
		c0,0,0.4,2.1,0.7,3.6c0.2,0.8-0.1,0.8,0.9,1.3c1,0.6,0.7,0,2.7-0.4C24.2,56,49,52,49,52l0.2,0l3.8,0.1c0,0,0.1-14.7,1.1-22.1
		c0.2-1.7,0.7-4.2,1.2-6.6c0.7-3.1,1.8-6.4,1.8-7.6c0.1-2.1,0.9-6.2-1.5-9.3C52.4,2.4,14-0.3,11.8,0.1C8.3,0.7,5.1,4.9,4,9.8
		c-0.8,4.6-1,8.5-0.9,13l0,0.1C1.8,23,0.6,23.1,0,23.1l0,2c0,0,8.3-0.6,9.6-1.1c2.9-1,4.5-2.4,7.6-2.9c2.8-0.4,5.5-1.2,8.1-2.3
		c2.8-1.9,4.2-1.9,4.7-1.3c0.9,1,0.2,1.7-0.1,1.9l-6.8,3.4c-0.8,0.5-1.1,1.5-1,2.4c0.9,1.5,2.2,1.8,3.5,1.8h14c0.6,0,0.8,0.3,0.8,1
		c0,0.5-0.3,1-0.9,1c-0.1,0-0.2,0-0.2,0H25.8c-0.7,0.1-0.9,0.3-0.9,1s0.3,0.9,0.9,1h17.3c0.6-0.1,1.1,0.4,1.1,0.9c0,0.1,0,0.1,0,0.2
		c0.1,0.4-0.2,0.8-0.6,0.9c-0.1,0-0.2,0-0.3,0H25.7c-1,0-1.2,0.5-1.2,1s0.5,0.9,1,1c0.1,0,0.1,0,0.2,0h13.4c0.6,0,1.1,0.4,1.2,1
		c0,0.6-0.6,1.1-1.2,1c0,0-0.1,0-0.1,0H24.7c-0.6,0-1,0.4-1,1c0,0.7,0.2,1,0.8,1h9.8c0.5,0,0.9,0.4,0.9,0.8c0,0.1,0,0.1,0,0.2
		c0,0.7-0.2,1.1-0.8,1.1L25.2,41c-2,0.1-4.1,0-6.1-0.4c0,0-7.7-2.9-8.7-3.4s-2.3-0.9-3.3-1.1C6.5,36.1,0,36,0,36l0.1,2
		c2.3-0.1,4.6,0,6.9,0.2c0.4,0,0.9,0.1,1.3,0.3c2.7,0.9,9.8,4,9.8,4c2.2,0.6,6.6,0.5,6.6,0.5l8.7,0.2c1.9,0,3.5-1.1,3.6-3
		c0-0.4-0.1-0.7-0.2-1.1H39c1.9,0,3.2-1,3.2-3c0.1-0.3,0-0.7-0.1-1c0,0,4.1,0.2,4.1-3c0.1-1.5-1-2.8-2.6-2.9c-0.2,0-0.3,0-0.5,0
		L41.7,29c0.4-0.2,0.4-0.6,0.6-1c0-2-1-3-2.9-3l-13.5,0.1c-0.2,0-0.5-0.1-0.7-0.2l-1.1-0.6l6-2.9c1.6-1.1,3.2-2.8,1.1-5.4
		c-1.7-1.7-5.3,0.3-7.3,1.5c-2.4,1-4.9,1.6-7.5,2c-2.1,0.3-4.1,1-5.9,2.1c-1.3,0.6-3.4,0.9-5.4,1.1l0-0.1c0,0,0.2-7.3,0.9-11.5
		C6.5,9,7.3,6.8,8.5,4.9c1.1-1.5,2.7-2.5,4.5-2.8c0.3,0,1,0,2,0c0.8,0,1.7,0.3,2.3,0.8c0.8,0.6,1.8,1.4,1.4,4.1
		c-0.2,1.9-1.7,10.3-1.7,10.3h1.9c0,0,2.1-11,2-12.3C20.8,4,20.4,3,19.7,2.2L19.7,2.2z M15.1,9.1L17,8c0,0-0.6-3.3-3.1-3.5
		s-4.7,2.1-5.5,5.8C8,12.1,8,13,8,13l2-0.2c0.2-1.3,0.5-2.7,1.1-3.9c0.6-1.4,1.5-2.3,2.6-2.3C14.5,6.6,15.1,9.1,15.1,9.1z M44,11.1
		c0.5,0,1,0.4,1,0.9c0,0,0,0,0,0.1c0,0.5-0.4,1-1,1c-0.5,0-1-0.4-1-1c0,0,0,0,0,0C42.9,11.6,43.4,11.1,44,11.1
		C43.9,11.1,43.9,11.1,44,11.1L44,11.1z M46.1,15.1c0.5,0,1,0.4,1,0.9c0,0,0,0,0,0.1c-0.1,0.5-0.5,1-1.1,0.9c-0.5,0-0.8-0.4-0.9-0.9
		C45.1,15.6,45.5,15.1,46.1,15.1C46.1,15.1,46.1,15.1,46.1,15.1L46.1,15.1z M42,15.1c0.5,0,1,0.4,1,0.9c0,0,0,0,0,0.1
		c0,0.5-0.4,1-1,1c-0.5,0-1-0.4-1-1c0,0,0,0,0,0C41,15.6,41.4,15.1,42,15.1C41.9,15.1,41.9,15.1,42,15.1L42,15.1z"/>
</g>
</svg>
