<?xml version="1.0" encoding="utf-8"?>
<!-- Generator: Adobe Illustrator 23.0.2, SVG Export Plug-In . SVG Version: 6.00 Build 0)  -->
<svg version="1.1" id="Слой_1" xmlns="http://www.w3.org/2000/svg" xmlns:xlink="http://www.w3.org/1999/xlink" x="0px" y="0px"
	 viewBox="0 0 60 59" style="enable-background:new 0 0 60 59;" xml:space="preserve">
<style type="text/css">
	.st0{fill-rule:evenodd;clip-rule:evenodd;fill:#E7312A;}
</style>
<g id="ystanovka">
	<path id="ystanovka-2" class="st0" d="M16.6,24.8c0.1,0.5,0.3,1,0.5,1.4c0.2,0.7,0.8,1.3,1.4,1.6c0.3,0.1,0.6,0.4,0.7,0.7
		c0.8,3.2,2.2,6.1,4.3,8.6l0.3,0.4c1.7,1.6,3.9,2.6,6.2,2.7c3.6-0.1,6.3-3.6,6.3-3.6c2.2-2.4,3.4-5,4.2-8.1c0.1-0.3,0.4-0.6,0.7-0.7
		c0.3-0.3,0.5-0.6,0.6-1c0.3-0.9,0.5-1.9,0.6-2.9l-0.1,0.2c-1.1,1.3-3.2,2.1-4.8,1.2c-3.5-1.9-13.9-1.6-16.7,0
		c-0.6,0.3-1.3,0.4-1.9,0.4c-0.7,0-1.4-0.3-2-0.7L16.6,24.8z M20.6,6.2c-2.3,2-2.6,4.7-2.6,4.9l-0.9,6.2l0.1,0
		c6.5-1.7,17.9-1.7,24.2,0l0.1,0l-0.8-6.1c0,0,0,0,0-0.1c0-0.1,0-2.8-2.2-4.8l0,0.1c-0.4,0.6-1.1,1-1.8,1.1h-0.1l0,0
		c-1.1,0-2-0.6-2.4-1.6c-0.2-0.5-0.2-1.1,0-1.6l0,0c-0.9-0.2-1.8-0.3-2.9-0.3h-3.2c-1.1,0-2.1,0.1-2.9,0.3l0,0
		c0.2,0.5,0.3,1.1,0.1,1.6c-0.4,1-1.3,1.6-2.3,1.6h0C21.9,7.4,21.1,6.9,20.6,6.2L20.6,6.2z M21.5,5.5c0.3,0.4,0.7,0.6,1.2,0.7
		c0.5,0,1-0.3,1.2-0.8c0-0.3,0-0.6-0.2-0.9l0,0C22.9,4.7,22.1,5.1,21.5,5.5L21.5,5.5z M35.2,4.5C35.1,4.7,35,5,35.1,5.3
		c0.2,0.6,0.8,0.9,1.4,0.9c0.4,0,0.8-0.3,1-0.6l0-0.1C36.9,5.1,36.1,4.7,35.2,4.5L35.2,4.5z M41.3,19.2c-6.1-1.8-17.8-1.8-24.1,0
		l-0.1,0.1c0.2,1.4,0.5,2.7,1,4.2l0.1,0.1c0.6,0.3,1.4,0.3,2,0c3.4-1.9,14.2-1.9,17.8,0c0.8,0.5,1.8,0.4,2.6-0.1l0.2-0.5
		C41.2,21.6,41.2,20.4,41.3,19.2L41.3,19.2z M37,38.9c-0.1,0-0.1,0-0.2-0.1l-0.1,0c-1.9,1.7-3.9,2.9-6.8,3.1c-2.7,0-5.4-1.1-7.4-2.9
		l-0.1-0.1c-0.2,0.1-0.5,0.3-0.6,0.3l0,0.1c0.1,4.4,4,5.9,7.7,5.9c3.8,0,7.4-1.6,7.4-6.2L37,38.9z M40,40.1
		c-0.4-0.1-0.7-0.3-1.1-0.4l0,0c-0.4,4.8-5,7.4-9.3,7.4c-5.1,0-9-2.2-9.5-6.9l0-0.1c-0.4,0.2-0.8,0.3-1.1,0.5l0,0.1V50H40L40,40.1
		L40,40.1z M27.8,2.1C27.9,2.1,27.9,2.1,27.8,2.1l3.2,0L31,2c0-0.4,0-0.7-0.1-1.1h-2.9C27.9,1.3,27.8,1.7,27.8,2.1L27.8,2.1z
		 M26.7,2.1c0-0.8,0.2-2.1,1.2-2.1h3.1c1,0,1.2,1.3,1.2,2l0,0.1c10,0.5,10.4,8.1,10.5,8.9l0.9,6.8c0,0.1,0,0.1,0,0.2
		c0,1-0.1,1.9-0.3,2.9c0.4,0.1,1,0.5,1.2,1.8c0.2,1.6-0.2,5.6-2,6.8c-0.8,2.8-2.2,5.4-4,7.7c4.8,1.9,17.2,6.9,18.5,8.1
		c1.4,1.2,2.5,8.3,3.1,12.5c0,0.3,0,0.6-0.2,0.8c-0.4,0.3-1,0.4-1.5,0.4l-0.5-2c-0.7-4.5-1.7-9.5-2.3-10.2C55,46.4,51,44.6,46,42.5
		l0,0V50h3.4c0.3,0,0.6,0.3,0.6,0.6v7.8c0,0.3-0.3,0.6-0.6,0.6c-0.3,0-1.4-0.3-1.4-0.6V52h-2.9c-0.5-0.3-0.9-0.8-1.1-1.4v-8.9v0
		c-0.7-0.3-1.3-0.5-2-0.8l0,0l0,0.1v9.5c-0.2,0.6-0.6,1.2-1.1,1.6H18c-0.5-0.4-0.8-1-0.9-1.6v-9l0-0.1c-0.7,0.3-1.4,0.6-2.1,0.9
		l0,0.1v8.3c-0.1,0.6-0.5,1.1-1.1,1.4H11v6.4c0,0.3,0,0.6-0.3,0.6S9,58.7,9,58.4v-7.8c0-0.3,1.3-0.6,1.6-0.6H13v-6.8l0-0.1
		c-4,1.8-7.4,3.3-8.1,3.8C4.4,47.6,2.3,57,2.3,57l-0.6,2c-0.5,0-1-0.1-1.5-0.4C0,58.4,0,58.1,0,57.8c0.6-3.4,2.3-11.2,3.5-12.5
		c0.6-0.6,9.6-4.5,17.5-7.9c-1.7-2.4-3-5.1-3.7-7.9c-2.2-1.2-3.2-4.8-2.9-6.5c0-0.7,0.5-1.2,1.1-1.5C15.2,20.4,15,19.2,15,18
		c0-0.1,0-0.1,0-0.2l1-6.9C16,10.8,16.8,2.8,26.7,2.1L26.7,2.1z"/>
</g>
</svg>
