<?xml version="1.0" encoding="utf-8"?>
<!-- Generator: Adobe Illustrator 23.0.2, SVG Export Plug-In . SVG Version: 6.00 Build 0)  -->
<svg version="1.1" id="Слой_1" xmlns="http://www.w3.org/2000/svg" xmlns:xlink="http://www.w3.org/1999/xlink" x="0px" y="0px"
	 viewBox="0 0 60 60" style="enable-background:new 0 0 60 60;" xml:space="preserve">
<style type="text/css">
	.st0{fill-rule:evenodd;clip-rule:evenodd;fill:#E7312A;}
</style>
<g id="zashita_ot_protechek">
	<path id="zashita_ot_protechek-2" class="st0" d="M25,3.8C13.5,4.2,4.2,13.5,3.8,25l0,0H16l0,0c0.4-4.8,4.2-8.7,9.1-9.1l0,0L25,3.8
		L25,3.8z M26.9,1.9v15H33l0-15H26.9L26.9,1.9z M26.9,43v15.2H33L33,43H26.9L26.9,43z M56.2,25.1C55.8,13.5,46.5,4.2,34.9,3.8l0,0
		V16l0,0c4.8,0.4,8.7,4.2,9.1,9.1l0,0L56.2,25.1L56.2,25.1z M43,27v6.1h15.1V27H43z M3.8,35C4.2,46.5,13.4,55.8,25,56.2l0.1,0V44
		l0,0c-4.8-0.4-8.7-4.2-9.1-9.1l0,0L3.8,35L3.8,35z M1.9,27v6.1H17V27H1.9z M42,34.7c-0.6-0.3-0.9-0.9-1-1.6V27
		c0.1-0.7,0.4-1.3,1-1.6l0,0c-0.2-4-3.4-7.2-7.4-7.5l0,0c-0.3,0.6-0.9,1-1.6,1.1h-6.1c-0.7-0.1-1.3-0.5-1.6-1.1l0,0
		c-3.9,0.3-7.1,3.5-7.3,7.4l0,0c0.6,0.3,1,0.9,1,1.6v6.1c0,0.7-0.4,1.3-1,1.6l0,0c0.2,3.9,3.3,7.1,7.3,7.4l0,0
		c0.3-0.6,0.9-1,1.6-1.1H33c0.7,0.1,1.3,0.5,1.6,1.1l0,0C38.7,41.9,41.8,38.7,42,34.7L42,34.7z M44,35c-0.4,4.8-4.2,8.7-9.1,9.1l0,0
		v14.1c0,1-0.8,1.9-1.9,1.9h-6.1c-1,0-1.9-0.8-1.9-1.9l0,0C12.4,57.7,2.3,47.6,1.9,35l0,0c-1,0-1.9-0.8-1.9-1.9V27
		c0-1,0.8-1.9,1.9-1.9l0,0C2.3,12.5,12.4,2.4,25,1.9l0,0c0-1,0.8-1.9,1.9-1.9H33c1,0,1.9,0.8,1.9,1.9l0,0
		c12.6,0.4,22.7,10.5,23.1,23.1l0,0c1,0,1.9,0.8,1.9,1.9v6.1c0,1-0.7,1.8-1.9,1.9c0,0,0,0,0,0c-0.4,12.8-10.9,23.1-23.8,23.2
		c-0.1,0,0.7,0,0.6,0l0-1.9c12,0.1,20.9-9.4,21.3-21.3l0,0L44,35L44,35z M30.9,15H29v-1.9h1.9V15z M46.8,31H45v-1.9h1.9V31z
		 M30.9,46.9H29V45h1.9V46.9z M15,31h-1.9v-1.9H15V31z"/>
</g>
</svg>
