<svg id="_1" data-name="1" xmlns="http://www.w3.org/2000/svg" width="295.25" height="293.06" viewBox="0 0 295.25 293.06">
  <metadata><?xpacket begin="﻿" id="W5M0MpCehiHzreSzNTczkc9d"?>
<x:xmpmeta xmlns:x="adobe:ns:meta/" x:xmptk="Adobe XMP Core 5.6-c138 79.159824, 2016/09/14-01:09:01        ">
   <rdf:RDF xmlns:rdf="http://www.w3.org/1999/02/22-rdf-syntax-ns#">
      <rdf:Description rdf:about=""/>
   </rdf:RDF>
</x:xmpmeta>
                                                                                                    
                                                                                                    
                                                                                                    
                                                                                                    
                                                                                                    
                                                                                                    
                                                                                                    
                                                                                                    
                                                                                                    
                                                                                                    
                                                                                                    
                                                                                                    
                                                                                                    
                                                                                                    
                                                                                                    
                                                                                                    
                                                                                                    
                                                                                                    
                                                                                                    
                                                                                                    
                           
<?xpacket end="w"?></metadata>
<defs>
    <style>
      .cls-1 {
        fill: none;
        stroke: #fff;
        stroke-width: 1px;
        fill-rule: evenodd;
      }
    </style>
  </defs>
  <path id="Фигура_832" data-name="Фигура 832" class="cls-1" d="M1697,2681l-284-37" transform="translate(-1404.38 -2642.5)"/>
  <path id="Фигура_831" data-name="Фигура 831" class="cls-1" d="M1545,2669l-134-17" transform="translate(-1404.38 -2642.5)"/>
  <path id="Фигура_830" data-name="Фигура 830" class="cls-1" d="M1699,2690l-125-17" transform="translate(-1404.38 -2642.5)"/>
  <path id="Фигура_829" data-name="Фигура 829" class="cls-1" d="M1575,2681l123,16" transform="translate(-1404.38 -2642.5)"/>
  <path id="Фигура_828" data-name="Фигура 828" class="cls-1" d="M1405,2659l134,18" transform="translate(-1404.38 -2642.5)"/>
  <path id="Фигура_827" data-name="Фигура 827" class="cls-1" d="M1483,2710v-17s4.18-3.13,8-3a25.237,25.237,0,0,1,8,2l2,17" transform="translate(-1404.38 -2642.5)"/>
  <path id="Фигура_826" data-name="Фигура 826" class="cls-1" d="M1444,2744l-3-1h-4s-4.19.17-4,4,0.5,10.96,2,13,3.63,4.68,6,4,7-5,7-5" transform="translate(-1404.38 -2642.5)"/>
  <path id="Фигура_825" data-name="Фигура 825" class="cls-1" d="M1482,2758a46.71,46.71,0,0,0,4,4c2.49,2.23,2.32,3.91,5,6s7.95,1.3,11-1c5.08-3.83,5.15-14.98,4-26s-1.87-22.27-3-28c-1.06-5.38-7.59-4.57-13-4-4.22.45-8.97,0.78-9,6-0.01,2.4,1.24,9.63,0,12a10.728,10.728,0,0,1-2,3" transform="translate(-1404.38 -2642.5)"/>
  <path id="Фигура_824" data-name="Фигура 824" class="cls-1" d="M1660,2815s-0.46,8.92-2,12-6,10-6,10" transform="translate(-1404.38 -2642.5)"/>
  <path id="Фигура_823" data-name="Фигура 823" class="cls-1" d="M1567,2719s16.24-6.85,25-6,14.13,4.49,16,8,3,6,3,6" transform="translate(-1404.38 -2642.5)"/>
  <path id="Фигура_822" data-name="Фигура 822" class="cls-1" d="M1627,2746a16.607,16.607,0,0,0-2,5,17.745,17.745,0,0,1-1,4" transform="translate(-1404.38 -2642.5)"/>
  <path id="Фигура_821" data-name="Фигура 821" class="cls-1" d="M1625,2734s-13.28-8.28-17-9-16.33,2.63-23,5c-7.01,2.49-22.92,8.73-24,12s-0.51,8.73,1,11,3.72,6.58,9,6c3.08-.34,8.85-4.45,10-6s2-9,2-9,2-2.85,4,0,4.17,5.68,7,6,10.77-.43,12-1,8.44-4.67,8-8-0.68-2.89,1-4,10,1,10,1v-4Z" transform="translate(-1404.38 -2642.5)"/>
  <path id="Фигура_820" data-name="Фигура 820" class="cls-1" d="M1611,2774s-13.02,14.12-21,13-10.11-3.71-13-7a26.8,26.8,0,0,1-6-12c-1.15-4.89-2-9-2-9" transform="translate(-1404.38 -2642.5)"/>
  <path id="Фигура_819" data-name="Фигура 819" class="cls-1" d="M1623,2777v-16a2.726,2.726,0,0,1,2-1c1.05,0.13,2.93.94,3,0s-0.26-6.14,2-9,2.66-11.13,1-13-6,0-6,0,1.73-16.52-3-22-15.34-14.6-34-10c-17.81,4.38-19.79,13.7-21,19a56.211,56.211,0,0,0-1,12" transform="translate(-1404.38 -2642.5)"/>
  <path id="Фигура_818" data-name="Фигура 818" class="cls-1" d="M1586,2794v-7" transform="translate(-1404.38 -2642.5)"/>
  <path id="Фигура_817" data-name="Фигура 817" class="cls-1" d="M1554,2687s1.98-.53,2-6,0.54-10.38,0-11a35.291,35.291,0,0,1-2-5" transform="translate(-1404.38 -2642.5)"/>
  <path id="Фигура_816" data-name="Фигура 816" class="cls-1" d="M1560,2688s3.18-.42,3-6a157.6,157.6,0,0,0-2-16" transform="translate(-1404.38 -2642.5)"/>
  <path id="Фигура_814" data-name="Фигура 814" class="cls-1" d="M1530,2706c0.69-1.79.84-9.05,1-12a9.791,9.791,0,0,1,2-6,106.152,106.152,0,0,0,6-11c0.57-1.55-.12-4.04,2-5s4,4,4,4l1-2-1-4s0.29-6,1-7,1.44-1.5,4-1,3,2,3,2,2.93-1.58,5-1a5.511,5.511,0,0,1,3,2h1a11.384,11.384,0,0,1,4,1c2.13,0.96,3,6,3,6a0.994,0.994,0,0,0,1,0c0.72-.26,3.15.95,4,3s1.21,7.26,1,11-5.31,8.64-9,11-9.93,6.66-13,10-6,13-6,13a56.225,56.225,0,0,1-11-1,30.439,30.439,0,0,1-9-4S1529.31,2707.79,1530,2706Z" transform="translate(-1404.38 -2642.5)"/>
  <path id="Фигура_815" data-name="Фигура 815" class="cls-1" d="M1565,2690s4.19-3.04,4-7,0-10,0-10" transform="translate(-1404.38 -2642.5)"/>
  <path id="Фигура_813" data-name="Фигура 813" class="cls-1" d="M1509,2792l-4-8s-1.42-2.52,0-7,10.64-26.65,13-34,9-26,9-26" transform="translate(-1404.38 -2642.5)"/>
  <path id="Фигура_812" data-name="Фигура 812" class="cls-1" d="M1560,2800s-11.86-9.58-14-11-8-7-8-7,5.35-17.28,5-27a178.172,178.172,0,0,1,1-25c0.63-5.37,1-9,1-9" transform="translate(-1404.38 -2642.5)"/>
  <path id="Фигура_811" data-name="Фигура 811" class="cls-1" d="M1484,2768s-7.75-2.15-13,1c-4.11,2.46-5.26,2.92-7,6a18.629,18.629,0,0,0-2,6s-7.68-10.01-10-12-3.87-7.14-4-13a26.2,26.2,0,0,0-3-12,6.092,6.092,0,0,1,2-8c3.35-2.37,4.39-.56,6,1,1.86,1.81,5,5,5,5s-2.56-2.57-4-4c-2.1-2.08-3.11-3.44-1-5,3.45-2.55,7.35,1.57,8,2s3,2,3,2-9.26-6.26-5-8c4.2-1.71,10.9,4.54,10.9,4.54l2.1,1.46-7-5s-1.38-1.22-1-2c1.98-4.04,5.78-4.26,10-2s8.48,7.11,9,11,2.26,16.99,1,19-3.85,2.89-4,4S1484,2768,1484,2768Z" transform="translate(-1404.38 -2642.5)"/>
  <path id="Фигура_810" data-name="Фигура 810" class="cls-1" d="M1601,2835s-21.97,10.26-34,12-34.11,2.47-41,1-18-7-18-7-11.95-9.74-19-18-14.04-26.33-19-34-7-8-7-8" transform="translate(-1404.38 -2642.5)"/>
  <path id="Фигура_809" data-name="Фигура 809" class="cls-1" d="M1574,2798s-12.11,1.53-17,3-21,8-21,8a176.361,176.361,0,0,0-19-12c-10.56-5.72-21.11-13.75-24-17s-10-12-10-12" transform="translate(-1404.38 -2642.5)"/>
  <path id="Фигура_808" data-name="Фигура 808" class="cls-1" d="M1601,2849s30.8-1.07,37-3,9-4,9-4" transform="translate(-1404.38 -2642.5)"/>
  <path id="Фигура_807" data-name="Фигура 807" class="cls-1" d="M1574,2797s28.23,32.87,29,42-1.88,10.12-4,10-8-3-8-3l-4-5" transform="translate(-1404.38 -2642.5)"/>
  <path id="Фигура_806" data-name="Фигура 806" class="cls-1" d="M1569,2847s-5.91,20.59-6,36-2,39-2,39l-2,13" transform="translate(-1404.38 -2642.5)"/>
  <path id="Фигура_805" data-name="Фигура 805" class="cls-1" d="M1656,2935a408.328,408.328,0,0,1,9-57c7.27-31.69,6.45-69.17-6-86s-17.79-15.44-27-16-21.53,6.4-28,11c-11.12,7.9-31,9-31,9" transform="translate(-1404.38 -2642.5)"/>
</svg>
