<svg id="_2" data-name="2" xmlns="http://www.w3.org/2000/svg" width="398.311" height="344.37" viewBox="0 0 398.311 344.37">
  <metadata><?xpacket begin="﻿" id="W5M0MpCehiHzreSzNTczkc9d"?>
<x:xmpmeta xmlns:x="adobe:ns:meta/" x:xmptk="Adobe XMP Core 5.6-c138 79.159824, 2016/09/14-01:09:01        ">
   <rdf:RDF xmlns:rdf="http://www.w3.org/1999/02/22-rdf-syntax-ns#">
      <rdf:Description rdf:about=""/>
   </rdf:RDF>
</x:xmpmeta>
                                                                                                    
                                                                                                    
                                                                                                    
                                                                                                    
                                                                                                    
                                                                                                    
                                                                                                    
                                                                                                    
                                                                                                    
                                                                                                    
                                                                                                    
                                                                                                    
                                                                                                    
                                                                                                    
                                                                                                    
                                                                                                    
                                                                                                    
                                                                                                    
                                                                                                    
                                                                                                    
                           
<?xpacket end="w"?></metadata>
<defs>
    <style>
      .cls-1 {
        fill: none;
        stroke: #fff;
        stroke-width: 1px;
        fill-rule: evenodd;
      }
    </style>
  </defs>
  <path id="Фигура_875" data-name="Фигура 875" class="cls-1" d="M909,3329l3,10,13-2-3-9" transform="translate(-836.219 -3009.16)"/>
  <path id="Фигура_874" data-name="Фигура 874" class="cls-1" d="M887,3330l-2,11,17,1-2-13" transform="translate(-836.219 -3009.16)"/>
  <path id="Фигура_872" data-name="Фигура 872" class="cls-1" d="M850,3323s-6.631,9.48-6,13,13,15.3,44,16,47.676-9.92,48-15-7-10-7-10" transform="translate(-836.219 -3009.16)"/>
  <path id="Фигура_873" data-name="Фигура 873" class="cls-1" d="M860,3327s-2.859,4.18-3,7,4.838,3.88,9,5,9-2,9-2l-2-8" transform="translate(-836.219 -3009.16)"/>
  <path id="Фигура_871" data-name="Фигура 871" class="cls-1" d="M839,3240c-0.076-.02,2.984,6.98,16.551,8.64A148.392,148.392,0,0,0,876,3250l-1,33s-14.421-.5-20.418-2.53c-6.914-2.33-16.727-6.63-16.582-6.47" transform="translate(-836.219 -3009.16)"/>
  <path id="Фигура_870" data-name="Фигура 870" class="cls-1" d="M838,3306s23.382,12.09,51,13c34.582,1.14,51-10,51-10" transform="translate(-836.219 -3009.16)"/>
  <path id="Фигура_869" data-name="Фигура 869" class="cls-1" d="M840,3206s8.091,18.72,52,20c43.957,1.28,49-15,49-15" transform="translate(-836.219 -3009.16)"/>
  <path id="Фигура_868" data-name="Фигура 868" class="cls-1" d="M859,3191s-7.853,1.4-13,7-6,11-6,11l-2,106s2.355,5.26,11,8,24.2,5.89,41,6,36.532-2.19,41-4,9-7,9-7l1-108s-0.471-6.44-5-10-6-6-6-6" transform="translate(-836.219 -3009.16)"/>
  <path id="Фигура_867" data-name="Фигура 867" class="cls-1" d="M922,3169v13s-5.23,3.32-17,3c-9.946-.27-11.707-0.66-12-7s1.425-6.18,12-6C915.871,3172.19,922,3169,922,3169Z" transform="translate(-836.219 -3009.16)"/>
  <path id="Фигура_866" data-name="Фигура 866" class="cls-1" d="M930,3149s-6.113,9.07-34,9c-33.244-.09-36-11-36-11" transform="translate(-836.219 -3009.16)"/>
  <path id="Фигура_865" data-name="Фигура 865" class="cls-1" d="M930,3149v45s-4.159,9.77-25,9-31.4-1.5-38-5-8-7-8-7l1-43s1.068-4.58,12-7c14.422-3.19,35,0,35,0v16" transform="translate(-836.219 -3009.16)"/>
  <path id="Фигура_864" data-name="Фигура 864" class="cls-1" d="M1097,3158s-22.94,10.04-31,26-14.8,33.31-32,40-35.428,8.97-42,6-10.012-7.49-14-3-1.425,6.12,7,11,16.85,10.41,12,15-11.054,5.06-21-4-12.705-21.37-18-40-2.668-26.53-15-32-21-3-21-3" transform="translate(-836.219 -3009.16)"/>
  <path id="Фигура_863" data-name="Фигура 863" class="cls-1" d="M1118,3010a15.423,15.423,0,0,1-3,5,7.532,7.532,0,0,1-5,2" transform="translate(-836.219 -3009.16)"/>
  <path id="Фигура_862" data-name="Фигура 862" class="cls-1" d="M1127,3077s-0.99-3.32,1-5c3.22-2.71,7,0,7,0" transform="translate(-836.219 -3009.16)"/>
  <path id="Фигура_861" data-name="Фигура 861" class="cls-1" d="M1139,3073s6.4-3.69,8-2a27.624,27.624,0,0,1,3,4" transform="translate(-836.219 -3009.16)"/>
  <path id="Фигура_860" data-name="Фигура 860" class="cls-1" d="M1133,3076s0.95-4.1,3-4,7,6,7,6" transform="translate(-836.219 -3009.16)"/>
  <path id="Фигура_859" data-name="Фигура 859" class="cls-1" d="M1128,3078c1.06-2.9,5-2,5-2l5,4" transform="translate(-836.219 -3009.16)"/>
  <path id="Фигура_858" data-name="Фигура 858" class="cls-1" d="M1123,3080s0.57-3.81,3-3,7,7,7,7" transform="translate(-836.219 -3009.16)"/>
  <path id="Фигура_857" data-name="Фигура 857" class="cls-1" d="M1123,3087s-5.26-4.11-3-6,5,0,5,0l3,5" transform="translate(-836.219 -3009.16)"/>
  <path id="Фигура_856" data-name="Фигура 856" class="cls-1" d="M1119,3090s-1.98-4.02,0-5" transform="translate(-836.219 -3009.16)"/>
  <path id="Фигура_855" data-name="Фигура 855" class="cls-1" d="M1099,3073s6.09,8.93,11,11,7,3,7,3" transform="translate(-836.219 -3009.16)"/>
  <path id="Фигура_854" data-name="Фигура 854" class="cls-1" d="M1089,3163s14.27,13.41,19,15,15.2-2.07,16-4,0.6-2.43-1-3-8,2-8,2,8.41-1.61,6-4-11,1-11,1,7.06-3.14,5-5-13,1-13,1l-3-3" transform="translate(-836.219 -3009.16)"/>
  <path id="Фигура_853" data-name="Фигура 853" class="cls-1" d="M1094,3227s-20.58,5.33-23,9-3.29,7.5-1,11,18.3,13.88,16,19-7.05,7.58-13,7-15.49-3.81-19-10-5-21-5-21" transform="translate(-836.219 -3009.16)"/>
  <path id="Фигура_852" data-name="Фигура 852" class="cls-1" d="M1074,3205s3.32,13.84,15,19,17,8,17,8,29.84-17.14,33-23,4.9-14.4-1-19-21-12-21-12" transform="translate(-836.219 -3009.16)"/>
  <path id="Фигура_851" data-name="Фигура 851" class="cls-1" d="M1207,3047c-3.37,1.55-1.4,19.42,4,29s14.98,22.89,20,21c5.96-2.93,2.16-20.79-3-30C1213.1,3040.44,1207.23,3046.89,1207,3047Z" transform="translate(-836.219 -3009.16)"/>
  <path id="Фигура_850" data-name="Фигура 850" class="cls-1" d="M1176,3094s4.83,14.82,10,18,13,1,13,1" transform="translate(-836.219 -3009.16)"/>
  <path id="Фигура_849" data-name="Фигура 849" class="cls-1" d="M1177,3129l22,13" transform="translate(-836.219 -3009.16)"/>
  <path id="Фигура_848" data-name="Фигура 848" class="cls-1" d="M1201,3112l-2,30-76,34" transform="translate(-836.219 -3009.16)"/>
  <path id="Фигура_847" data-name="Фигура 847" class="cls-1" d="M1086,3138l90-45,2,36-79,34" transform="translate(-836.219 -3009.16)"/>
  <path id="Фигура_846" data-name="Фигура 846" class="cls-1" d="M1231,3097l-36,18" transform="translate(-836.219 -3009.16)"/>
  <path id="Фигура_845" data-name="Фигура 845" class="cls-1" d="M1099,3163l-12-23s-6.23-7.13-7-16a32.648,32.648,0,0,1,2-15l124-62" transform="translate(-836.219 -3009.16)"/>
  <path id="Фигура_844" data-name="Фигура 844" class="cls-1" d="M1043,3133l-4,5s8.3-1.74,16,1,10.22,5.64,15,6,19,0,19,0" transform="translate(-836.219 -3009.16)"/>
  <path id="Фигура_843" data-name="Фигура 843" class="cls-1" d="M1026,3160s-19.88,7.36-26,13-12,16-12,16" transform="translate(-836.219 -3009.16)"/>
  <path id="Фигура_842" data-name="Фигура 842" class="cls-1" d="M1017,3122s-1.18,21.18,0,26,3.35,9.48,7,11c7.75,3.23,33.06-.59,35-2" transform="translate(-836.219 -3009.16)"/>
  <path id="Фигура_841" data-name="Фигура 841" class="cls-1" d="M1085,3198s12-22.57,6-31-14.43-11.4-24-10-13,1-13,1" transform="translate(-836.219 -3009.16)"/>
  <path id="Фигура_840" data-name="Фигура 840" class="cls-1" d="M1034,3198s15.14-6.77,28-6a78.459,78.459,0,0,1,23,5s-0.36,2.49-4,4a37.164,37.164,0,0,1-6,2" transform="translate(-836.219 -3009.16)"/>
  <path id="Фигура_839" data-name="Фигура 839" class="cls-1" d="M1049,3176s-13.68,12.61-16,30-1.42,29.69-6,38-18.29,22.17-18,27,0.37,15.62,16,19,20.33,1.43,21-5-10.89-15.27-8-25,42-64,42-64" transform="translate(-836.219 -3009.16)"/>
  <path id="Фигура_838" data-name="Фигура 838" class="cls-1" d="M1018,3099s-9.99,30.96-14,41-16.678,29.88-15,43,2.536,19.83,10,28,16.46,7,21,6a68.28,68.28,0,0,0,11-4" transform="translate(-836.219 -3009.16)"/>
  <path id="Фигура_837" data-name="Фигура 837" class="cls-1" d="M1055,3101s-2.64,20.46-6,26-5,7-5,7-5.08-11.92-14-13a33.816,33.816,0,0,0-16,2" transform="translate(-836.219 -3009.16)"/>
  <path id="Фигура_836" data-name="Фигура 836" class="cls-1" d="M1071,3058s-8.08,4.45-16,4-19.36-2.1-26,6c-8.49,10.35-10.58,19.31-10,28s-5,27-5,27l3,3" transform="translate(-836.219 -3009.16)"/>
  <path id="Фигура_835" data-name="Фигура 835" class="cls-1" d="M1084,3038s-2.51-5.3-6-3-2.06,8.31,0,9,4.76,1.61,5,5-0.56,6.08,3,8,11.24,2.24,16,3a33.04,33.04,0,0,1,9,3" transform="translate(-836.219 -3009.16)"/>
  <path id="Фигура_834" data-name="Фигура 834" class="cls-1" d="M1123,3010s-5.14,14.42-12,14-3.58-5.08-6-4,0.17,6.83-5,6-6.29-5.46-11-3c-4.19,2.19-2,12-2,12" transform="translate(-836.219 -3009.16)"/>
  <path id="Фигура_833" data-name="Фигура 833" class="cls-1" d="M1114,3024s5.25,12.52,4,22-3.19,14.89-7,17-10,4.46-11,9,0.45,6.95-3,12-6.26,9.46-11,9-8.33-9.89-12-18a45.621,45.621,0,0,1-4-15,33.339,33.339,0,0,0,1-16c-1.58-9.15-3.48-18,3-24s13.62-7.04,21-7c8.27,0.05,13,4,13,4" transform="translate(-836.219 -3009.16)"/>
</svg>
