<svg id="_3" data-name="3" xmlns="http://www.w3.org/2000/svg" width="363.34" height="286.34" viewBox="0 0 363.34 286.34">
  <metadata><?xpacket begin="﻿" id="W5M0MpCehiHzreSzNTczkc9d"?>
<x:xmpmeta xmlns:x="adobe:ns:meta/" x:xmptk="Adobe XMP Core 5.6-c138 79.159824, 2016/09/14-01:09:01        ">
   <rdf:RDF xmlns:rdf="http://www.w3.org/1999/02/22-rdf-syntax-ns#">
      <rdf:Description rdf:about=""/>
   </rdf:RDF>
</x:xmpmeta>
                                                                                                    
                                                                                                    
                                                                                                    
                                                                                                    
                                                                                                    
                                                                                                    
                                                                                                    
                                                                                                    
                                                                                                    
                                                                                                    
                                                                                                    
                                                                                                    
                                                                                                    
                                                                                                    
                                                                                                    
                                                                                                    
                                                                                                    
                                                                                                    
                                                                                                    
                                                                                                    
                           
<?xpacket end="w"?></metadata>
<defs>
    <style>
      .cls-1, .cls-2 {
        fill: none;
        stroke: #fff;
        stroke-width: 1px;
      }

      .cls-1 {
        fill-rule: evenodd;
      }
    </style>
  </defs>
  <path id="Фигура_901" data-name="Фигура 901" class="cls-1" d="M1711,3455v20l9,3-9,2-1,11-4-9-10-4,11-3Z" transform="translate(-1409.38 -3454.5)"/>
  <path id="Фигура_900" data-name="Фигура 900" class="cls-1" d="M1719,3641v19l7,1-7,6-2,13-3-13-11-5,9-2Z" transform="translate(-1409.38 -3454.5)"/>
  <path id="Фигура_899" data-name="Фигура 899" class="cls-1" d="M1563,3524l5-32,1,32,11,1-12,5-2,13-1-11-11-5Z" transform="translate(-1409.38 -3454.5)"/>
  <ellipse id="Эллипс_895" data-name="Эллипс 895" class="cls-2" cx="211.62" cy="51" rx="12" ry="3.5"/>
  <ellipse id="Эллипс_895_копия" data-name="Эллипс 895 копия" class="cls-2" cx="278.62" cy="41" rx="12" ry="3.5"/>
  <ellipse id="Эллипс_895_копия_2" data-name="Эллипс 895 копия 2" class="cls-2" cx="132.62" cy="41" rx="12" ry="3.5"/>
  <ellipse id="Эллипс_895_копия_3" data-name="Эллипс 895 копия 3" class="cls-2" cx="45.62" cy="29" rx="12" ry="3.5"/>
  <path id="Фигура_894" data-name="Фигура 894" class="cls-1" d="M1616,3597l-2-37-21,1v36l1,5,11-1" transform="translate(-1409.38 -3454.5)"/>
  <path id="Фигура_893" data-name="Фигура 893" class="cls-1" d="M1588,3587v-25s-0.77-5.68,5-7,22-1,22-1,5.02,1.67,5,5,0,24,0,24" transform="translate(-1409.38 -3454.5)"/>
  <path id="Фигура_892" data-name="Фигура 892" class="cls-1" d="M1605,3609l-13,1s0.82-8.53-2-16-5-10-5-10a71.115,71.115,0,0,0,0,14c0.75,8.05-2.33,13.23-1,19a30.656,30.656,0,0,1,1,9l-6,7" transform="translate(-1409.38 -3454.5)"/>
  <path id="Фигура_891" data-name="Фигура 891" class="cls-1" d="M1584,3644s5.51-9.52,8-17,5.89-13.42,10-14,4,0,4,0" transform="translate(-1409.38 -3454.5)"/>
  <path id="Фигура_890" data-name="Фигура 890" class="cls-1" d="M1535,3613l-13,2" transform="translate(-1409.38 -3454.5)"/>
  <path id="Фигура_889" data-name="Фигура 889" class="cls-1" d="M1593,3701s-3.71-43.85-12-62-14.87-24.23-26-25-17.26.23-21-2a19.612,19.612,0,0,1-6-6" transform="translate(-1409.38 -3454.5)"/>
  <path id="Фигура_888" data-name="Фигура 888" class="cls-1" d="M1549,3657s18.26,50.38,25,61,9.43,17.3,17,15,20.46-23.95,19-57-1.09-39.78,3-46,11.74-16.97,11-30,0-16,0-16l-3,1s1.85,18.12-2,21-6,3-6,3-0.18-8.92-3-12-5,0-5,0a34.414,34.414,0,0,1,1,13c-0.93,6.58,4.26,10.51,0,15s-8.73,18.32-11,27-4,24-4,24" transform="translate(-1409.38 -3454.5)"/>
  <path id="Фигура_887" data-name="Фигура 887" class="cls-1" d="M1561,3686s-3.75,20.66-3,33a121.483,121.483,0,0,0,3,21" transform="translate(-1409.38 -3454.5)"/>
  <path id="Фигура_886" data-name="Фигура 886" class="cls-1" d="M1446,3633s-3.62,26.64,2,48,19,59,19,59" transform="translate(-1409.38 -3454.5)"/>
  <path id="Фигура_885" data-name="Фигура 885" class="cls-1" d="M1424,3619s28.11-8.96,35-48,13.76-62.61,38-67,38.56,2.4,45,17,1.24,50.83-6,68-26,47-26,47-39.6,5.31-62-2S1424,3619,1424,3619Z" transform="translate(-1409.38 -3454.5)"/>
  <path id="Фигура_884" data-name="Фигура 884" class="cls-1" d="M1690,3620l-9,9" transform="translate(-1409.38 -3454.5)"/>
  <path id="Фигура_883" data-name="Фигура 883" class="cls-1" d="M1690,3558l-12-6" transform="translate(-1409.38 -3454.5)"/>
  <path id="Фигура_882" data-name="Фигура 882" class="cls-1" d="M1758,3541l-68,18v63l69,9" transform="translate(-1409.38 -3454.5)"/>
  <path id="Фигура_881" data-name="Фигура 881" class="cls-1" d="M1759,3534v111l-79-16v-76Z" transform="translate(-1409.38 -3454.5)"/>
  <path id="Фигура_880" data-name="Фигура 880" class="cls-1" d="M1449,3680l-39,5" transform="translate(-1409.38 -3454.5)"/>
  <path id="Фигура_879" data-name="Фигура 879" class="cls-1" d="M1769,3706l-118-44-42,6" transform="translate(-1409.38 -3454.5)"/>
  <path id="Фигура_878" data-name="Фигура 878" class="cls-1" d="M1650,3522v142" transform="translate(-1409.38 -3454.5)"/>
  <path id="Фигура_877" data-name="Фигура 877" class="cls-1" d="M1534,3509l116,13,122-29" transform="translate(-1409.38 -3454.5)"/>
  <path id="Фигура_876" data-name="Фигура 876" class="cls-1" d="M1413,3497l78,8" transform="translate(-1409.38 -3454.5)"/>
</svg>
