<svg id="_4" data-name="4" xmlns="http://www.w3.org/2000/svg" width="331.88" height="354.5" viewBox="0 0 331.88 354.5">
  <metadata><?xpacket begin="﻿" id="W5M0MpCehiHzreSzNTczkc9d"?>
<x:xmpmeta xmlns:x="adobe:ns:meta/" x:xmptk="Adobe XMP Core 5.6-c138 79.159824, 2016/09/14-01:09:01        ">
   <rdf:RDF xmlns:rdf="http://www.w3.org/1999/02/22-rdf-syntax-ns#">
      <rdf:Description rdf:about=""/>
   </rdf:RDF>
</x:xmpmeta>
                                                                                                    
                                                                                                    
                                                                                                    
                                                                                                    
                                                                                                    
                                                                                                    
                                                                                                    
                                                                                                    
                                                                                                    
                                                                                                    
                                                                                                    
                                                                                                    
                                                                                                    
                                                                                                    
                                                                                                    
                                                                                                    
                                                                                                    
                                                                                                    
                                                                                                    
                                                                                                    
                           
<?xpacket end="w"?></metadata>
<defs>
    <style>
      .cls-1, .cls-2 {
        fill: none;
        stroke: #626679;
        stroke-width: 1px;
      }

      .cls-2 {
        fill-rule: evenodd;
      }
    </style>
  </defs>
  <circle id="Эллипс_930" data-name="Эллипс 930" class="cls-1" cx="238.5" cy="123.5" r="40"/>
  <ellipse id="Эллипс_932" data-name="Эллипс 932" class="cls-1" cx="84.5" cy="50" rx="73" ry="22.5"/>
  <ellipse id="Эллипс_933" data-name="Эллипс 933" class="cls-1" cx="53" cy="52" rx="17.5" ry="5.5"/>
  <ellipse id="Эллипс_933_копия" data-name="Эллипс 933 копия" class="cls-1" cx="122" cy="47" rx="17.5" ry="5.5"/>
  <ellipse id="Эллипс_935" data-name="Эллипс 935" class="cls-1" cx="72" cy="35.5" rx="4.5" ry="2"/>
  <ellipse id="Эллипс_936" data-name="Эллипс 936" class="cls-1" cx="68.5" cy="63.5" rx="4" ry="2"/>
  <ellipse id="Эллипс_937" data-name="Эллипс 937" class="cls-1" cx="126.5" cy="60.5" rx="4" ry="2"/>
  <path id="Фигура_938" data-name="Фигура 938" class="cls-2" d="M825,10644s15.605,43.7,63,63,83,10,83,10l-8,16,15-15-4-29-2,22s-16.985-12.7-13-35c4.3-24,13-33,13-33" transform="translate(-814.5 -10582.5)"/>
  <path id="Фигура_931" data-name="Фигура 931" class="cls-2" d="M825,10633l-10-25s14.026-26,84-25,82,20,82,20l-9,28" transform="translate(-814.5 -10582.5)"/>
  <circle id="Эллипс_929" data-name="Эллипс 929" class="cls-1" cx="239" cy="147" r="4.5"/>
  <path id="Фигура_928" data-name="Фигура 928" class="cls-2" d="M1014,10792v3h75v-3h-75Z" transform="translate(-814.5 -10582.5)"/>
  <path id="Фигура_927" data-name="Фигура 927" class="cls-2" d="M1015,10781v4h75v-4h-75Z" transform="translate(-814.5 -10582.5)"/>
  <path id="Фигура_926" data-name="Фигура 926" class="cls-2" d="M1014,10771l-1,4h78v-5Z" transform="translate(-814.5 -10582.5)"/>
  <path id="Фигура_925" data-name="Фигура 925" class="cls-2" d="M1009,10823v4l3-4,1,2,3-2s1.01,3.8,3,2a9.319,9.319,0,0,1,5-2l2,2,5-1" transform="translate(-814.5 -10582.5)"/>
  <path id="Фигура_924" data-name="Фигура 924" class="cls-2" d="M1051,10720h4l5-34h-14Z" transform="translate(-814.5 -10582.5)"/>
  <path id="Фигура_923" data-name="Фигура 923" class="cls-2" d="M1005,10817v-46s-0.85-5,2-7,8-2,8-2h82a5.915,5.915,0,0,1,5,2,10.675,10.675,0,0,1,2,6v34s-1.42,5.6-4,6a26.972,26.972,0,0,1-6,0h-80s-3.5,1-5,3A27,27,0,0,1,1005,10817Z" transform="translate(-814.5 -10582.5)"/>
  <path id="Фигура_922" data-name="Фигура 922" class="cls-2" d="M1111,10769v-125s-1.53-5.9-7-6-105,0-105,0-5.893,2.2-6,7,0,209,0,209" transform="translate(-814.5 -10582.5)"/>
  <path id="Фигура_921" data-name="Фигура 921" class="cls-2" d="M1111,10804v-12" transform="translate(-814.5 -10582.5)"/>
  <path id="Фигура_920" data-name="Фигура 920" class="cls-2" d="M1111,10840v-11" transform="translate(-814.5 -10582.5)"/>
  <path id="Фигура_919" data-name="Фигура 919" class="cls-2" d="M999,10861h106" transform="translate(-814.5 -10582.5)"/>
  <path id="Фигура_918" data-name="Фигура 918" class="cls-2" d="M1005,10870h105" transform="translate(-814.5 -10582.5)"/>
  <path id="Фигура_917" data-name="Фигура 917" class="cls-2" d="M989,10768v78" transform="translate(-814.5 -10582.5)"/>
  <path id="Фигура_916" data-name="Фигура 916" class="cls-2" d="M1118,10759v-116s1.7-12.8-8-13-114,0-114,0-6.81,2-8,7,0,98,0,98" transform="translate(-814.5 -10582.5)"/>
  <path id="Фигура_915" data-name="Фигура 915" class="cls-2" d="M1118,10744s22.36-23.1,22-37-2.16-15.2-7-14-15,11-15,11" transform="translate(-814.5 -10582.5)"/>
  <path id="Фигура_914" data-name="Фигура 914" class="cls-2" d="M1120,10765s-11.05,6.4-14,13-3.72,12.5,1,14,21.75-3.9,27-10,9.45-17.1,6-23-5.68-6.1-10-5-13,7-13,7" transform="translate(-814.5 -10582.5)"/>
  <path id="Фигура_913" data-name="Фигура 913" class="cls-2" d="M1121,10798s-11.48,7.6-15,13-6.29,11.5-3,15,21.01,0.6,31-9,13.25-18.9,9-24-12.56-6.3-18-3-8,4-8,4" transform="translate(-814.5 -10582.5)"/>
  <path id="Фигура_910" data-name="Фигура 910" class="cls-2" d="M1119,10830s18.45-7.3,21-2,1.69,18.9-4,24-16.45,17.3-24,15-10.33-7.7-8-15,13-16,13-16" transform="translate(-814.5 -10582.5)"/>
  <path id="Фигура_909" data-name="Фигура 909" class="cls-2" d="M1035,10936s14.2-22.5,28-28,37.05-23.9,40-29a85.188,85.188,0,0,1,7-10" transform="translate(-814.5 -10582.5)"/>
  <path id="Фигура_908" data-name="Фигура 908" class="cls-2" d="M914,10930s28.283-27,26-56-7.32-57.7,0-74,22.217-31.7,26-42,11-28,11-28,15.428-.2,16,13-3.011,26.2-8,33-15.392,22.6-13,29,9.441,12.3,12,24a134.659,134.659,0,0,0,5,18s9.458,11.7,14,19,9,20,9,20" transform="translate(-814.5 -10582.5)"/>
</svg>
